<svg width="433" height="69" viewBox="0 0 433 69" fill="none" xmlns="http://www.w3.org/2000/svg">
<path opacity="0.5" d="M44.8499 59.68C29.8399 60.29 16.6799 52.37 12.2199 37.62C9.80992 29.66 10.0699 19.76 14.7199 12.61C19.4699 5.32003 28.95 1.66005 37.26 0.570047C53.12 -1.49995 69.35 8.77004 71.55 25.19C73.76 41.65 62.9099 59.77 44.8399 59.68" fill="#FFD4D2"/>
<path d="M31.74 66.1801L30.7 66.1L30.83 64.0101L32.92 64.16L32.79 66.2501L31.74 66.1901V66.1801ZM36.9 64.0301L38.97 63.7601L39.22 65.8301L37.15 66.1L36.9 64.0301ZM25.36 65.1401L24.34 64.8901L24.88 62.86L26.89 63.3801L26.37 65.41L25.37 65.1401H25.36ZM42.86 62.8801L44.83 62.23L45.5 64.22L43.51 64.8701L42.86 62.8801ZM19.3 62.9001L18.36 62.4601L19.26 60.5801L21.14 61.48L20.24 63.36L19.3 62.9001ZM48.46 60.6201L50.28 59.6L51.33 61.42L49.51 62.4401L48.46 60.6201ZM13.76 59.5601L12.95 58.9301L14.1801 57.2601L15.85 58.4901L14.62 60.1801L13.76 59.55V59.5601ZM53.5601 57.3201L55.15 55.9601L56.51 57.55L55.71 58.22V58.2401L54.92 58.91L53.5601 57.3201Z" fill="white"/>
<path d="M65.23 36.5801L65.4399 34.4901L67.51 34.7001L67.4301 35.7401V35.72L67.33 36.7701L65.24 36.5801H65.23ZM65.3101 29.47L65.2 28.42L67.29 28.23L67.48 30.3L65.41 30.5101L65.3 29.4601L65.3101 29.47ZM64.14 23.5301L63.85 22.5301L65.86 21.92L66.15 22.92L66.4399 23.92L64.45 24.5301L64.14 23.5301ZM61.86 17.9301L61.38 16.9901L63.22 16.0301L63.7 16.9501L64.2 17.8701L62.34 18.85L61.86 17.9301ZM58.54 12.85L57.89 12.04L59.52 10.7401L60.8199 12.3701L59.1899 13.66L58.54 12.85ZM54.3199 8.52008V8.50006L53.53 7.83008L54.87 6.24005L55.66 6.91003L56.48 7.58008L55.12 9.19006L54.33 8.52008H54.3199ZM49.35 5.05005L48.4301 4.55005L49.45 2.71008L50.37 3.23004L51.27 3.73004L50.25 5.55005L49.35 5.05005ZM43.79 2.60004L42.8101 2.29004L43.46 0.300049L45.45 0.950073L44.8 2.94006L43.8 2.60004H43.79Z" fill="white"/>
<path d="M0.550049 35.7501L0.439941 34.7001L2.53003 34.5101L2.71997 36.5801L0.630005 36.7701L0.550049 35.7501ZM0.469971 30.3101L0.680054 28.2401L2.75 28.4501L2.54004 30.5201L0.469971 30.3101ZM1.52002 23.9301L2.13 21.92L4.12 22.5301L3.54004 24.54L1.53003 23.9301H1.52002ZM3.78003 17.8701L4.73999 16.0301L6.59998 16.9901L6.12 17.9301H6.09998L5.62 18.85L3.78003 17.8701ZM7.15002 12.3701L7.81995 11.55L8.46997 10.7401L10.1 12.04L9.44995 12.85L8.78003 13.66L7.15002 12.3701ZM11.52 7.60004L13.11 6.24005L14.47 7.83008L12.88 9.19006L11.52 7.60004ZM16.7 3.73004L18.52 2.71008L19.54 4.55005L18.64 5.05005L17.72 5.57007L16.7 3.73004ZM22.53 0.950073L23.53 0.620056L24.51 0.310059L25.1801 2.30005L24.1801 2.61005L23.2 2.95007L22.53 0.960083V0.950073Z" fill="white"/>
<path d="M208.13 68.0101L207.09 67.9301L207.22 65.8401L209.31 65.9901L209.18 68.0801L208.13 68.0201V68.0101ZM213.29 65.86L215.36 65.5901L215.61 67.66L213.54 67.9301L213.29 65.86ZM201.75 66.97L200.73 66.72L201.27 64.6901L203.28 65.2101L202.76 67.2401L201.76 66.97H201.75ZM219.25 64.7101L221.22 64.0601L221.89 66.05L219.9 66.7001L219.25 64.7101ZM195.69 64.73L194.75 64.29L195.65 62.41L197.53 63.3101L196.63 65.1901L195.69 64.73ZM224.85 62.4501L226.67 61.4301L227.72 63.2501L225.9 64.2701L224.85 62.4501ZM190.15 61.3901L189.34 60.7601L190.57 59.0901L192.24 60.3201L191.01 62.0101L190.15 61.3801V61.3901ZM229.95 59.1501L231.54 57.79L232.9 59.3801L232.1 60.05V60.0701L231.31 60.7401L229.95 59.1501Z" fill="white"/>
<path d="M176.94 37.5801L176.83 36.5301L178.92 36.3401L179.11 38.41L177.02 38.6L176.94 37.5801ZM176.86 32.1401L177.07 30.0701L179.14 30.2801L178.93 32.35L176.86 32.1401ZM177.91 25.7601L178.52 23.7501L180.51 24.36L179.93 26.3701L177.92 25.7601H177.91ZM180.17 19.7001L181.13 17.86L182.99 18.8201L182.51 19.7601H182.49L182.01 20.6801L180.17 19.7001ZM183.54 14.2001L184.21 13.3801L184.86 12.5701L186.49 13.8701L185.84 14.6801L185.17 15.4901L183.54 14.2001ZM187.91 9.43005L189.5 8.07007L190.86 9.66003L189.27 11.0201L187.91 9.43005ZM193.09 5.56006L194.91 4.54004L195.93 6.38007L195.03 6.88007L194.11 7.40009L193.09 5.56006ZM198.92 2.78009L199.92 2.45007L200.9 2.14008L201.57 4.13007L200.57 4.44006L199.59 4.78009L198.92 2.79004V2.78009Z" fill="white"/>
<path opacity="0.5" d="M405.84 61.51C390.83 62.12 377.67 54.2001 373.21 39.4501C370.8 31.4901 371.06 21.59 375.71 14.44C380.46 7.15004 389.94 3.49006 398.25 2.40006C414.11 0.330065 430.34 10.6001 432.54 27.0201C434.75 43.4801 423.9 61.6 405.83 61.51" fill="#FFD4D2"/>
<path d="M392.73 68.0101L391.69 67.9301L391.82 65.8401L393.91 65.9901L393.78 68.0801L392.73 68.0201V68.0101ZM397.89 65.86L399.96 65.5901L400.21 67.66L398.14 67.9301L397.89 65.86ZM386.35 66.97L385.33 66.72L385.87 64.6901L387.88 65.2101L387.36 67.2401L386.36 66.97H386.35ZM403.85 64.7101L405.82 64.0601L406.49 66.05L404.5 66.7001L403.85 64.7101ZM380.29 64.73L379.35 64.29L380.25 62.41L382.13 63.3101L381.23 65.1901L380.29 64.73ZM409.45 62.4501L411.27 61.4301L412.32 63.2501L410.5 64.2701L409.45 62.4501ZM374.75 61.3901L373.94 60.7601L375.17 59.0901L376.84 60.3201L375.61 62.0101L374.75 61.3801V61.3901ZM414.55 59.1501L416.14 57.79L417.5 59.3801L416.7 60.05V60.0701L415.91 60.7401L414.55 59.1501Z" fill="white"/>
<path d="M426.22 38.41L426.43 36.3201L428.5 36.5301L428.42 37.5701V37.55L428.32 38.6L426.23 38.41H426.22ZM426.3 31.3L426.19 30.2501L428.28 30.0601L428.47 32.1301L426.4 32.3401L426.29 31.29L426.3 31.3ZM425.13 25.36L424.84 24.36L426.85 23.7501L427.14 24.7501L427.43 25.7501L425.44 26.36L425.13 25.36ZM422.85 19.7601L422.37 18.8201L424.21 17.86L424.69 18.7801L425.19 19.7001L423.33 20.6801L422.85 19.7601ZM419.53 14.6801L418.88 13.8701L420.51 12.5701L421.81 14.2001L420.18 15.4901L419.53 14.6801ZM415.31 10.35V10.3301L414.52 9.66003L415.86 8.07007L416.65 8.74005L417.47 9.41003L416.11 11.0201L415.32 10.35H415.31ZM410.34 6.88007L409.42 6.38007L410.44 4.54004L411.36 5.06006L412.26 5.56006L411.24 7.38007L410.34 6.88007ZM404.78 4.43005L403.8 4.12006L404.45 2.13007L406.44 2.78009L405.79 4.77008L404.79 4.43005H404.78Z" fill="white"/>
<path d="M361.54 37.5801L361.43 36.5301L363.52 36.3401L363.71 38.41L361.62 38.6L361.54 37.5801ZM361.46 32.1401L361.67 30.0701L363.74 30.2801L363.53 32.35L361.46 32.1401ZM362.51 25.7601L363.12 23.7501L365.11 24.36L364.53 26.3701L362.52 25.7601H362.51ZM364.77 19.7001L365.73 17.86L367.59 18.8201L367.11 19.7601H367.09L366.61 20.6801L364.77 19.7001ZM368.14 14.2001L368.81 13.3801L369.46 12.5701L371.09 13.8701L370.44 14.6801L369.77 15.4901L368.14 14.2001ZM372.51 9.43005L374.1 8.07007L375.46 9.66003L373.87 11.0201L372.51 9.43005ZM377.69 5.56006L379.51 4.54004L380.53 6.38007L379.63 6.88007L378.71 7.40009L377.69 5.56006ZM383.52 2.78009L384.52 2.45007L385.5 2.14008L386.17 4.13007L385.17 4.44006L384.19 4.78009L383.52 2.79004V2.78009Z" fill="white"/>
<path opacity="0.5" d="M221.24 61.51C206.23 62.12 193.07 54.2001 188.61 39.4501C186.2 31.4901 186.46 21.59 191.11 14.44C195.86 7.15004 205.34 3.49006 213.65 2.40006C229.51 0.330065 245.74 10.6001 247.94 27.0201C250.15 43.4801 239.3 61.6 221.23 61.51" fill="#FFD4D2"/>
<path d="M241.62 38.41L241.83 36.3201L243.9 36.5301L243.82 37.5701V37.55L243.72 38.6L241.63 38.41H241.62ZM241.7 31.3L241.59 30.2501L243.68 30.0601L243.87 32.1301L241.8 32.3401L241.69 31.29L241.7 31.3ZM240.53 25.36L240.24 24.36L242.25 23.7501L242.54 24.7501L242.83 25.7501L240.84 26.36L240.53 25.36ZM238.25 19.7601L237.77 18.8201L239.61 17.86L240.09 18.7801L240.59 19.7001L238.73 20.6801L238.25 19.7601ZM234.93 14.6801L234.28 13.8701L235.91 12.5701L237.21 14.2001L235.58 15.4901L234.93 14.6801ZM230.71 10.35V10.3301L229.92 9.66003L231.26 8.07007L232.05 8.74005L232.87 9.41003L231.51 11.0201L230.72 10.35H230.71ZM225.74 6.88007L224.82 6.38007L225.84 4.54004L226.76 5.06006L227.66 5.56006L226.64 7.38007L225.74 6.88007ZM220.18 4.43005L219.2 4.12006L219.85 2.13007L221.84 2.78009L221.19 4.77008L220.19 4.43005H220.18Z" fill="white"/>
</svg>
