<?xml version="1.0" encoding="UTF-8" standalone="no"?>
<svg
  viewBox="0 0 80 80"
  fill="none"
  version="1.1"
  id="svg26"
  xmlns="http://www.w3.org/2000/svg"
  xmlns:svg="http://www.w3.org/2000/svg"
>
  <defs id="defs30" />
  <path
    opacity="0.5"
    d="m 49.144115,68.984132 c -15.01,0.61 -28.17,-7.31 -32.63,-22.06 -2.40998,-7.96 -2.15,-17.86 2.5,-25.01 4.75,-7.28997 14.2301,-10.94995 22.5401,-12.0399528 15.86,-2.069997 32.09,8.1999928 34.29,24.6199528 2.21,16.46 -8.6401,34.58 -26.7101,34.49"
    fill="#ffd4d2"
    id="path2"
  />
  <path
    d="m 36.034215,75.484232 -1.04,-0.0801 0.13,-2.0899 2.09,0.1499 -0.13,2.0901 -1.05,-0.06 z m 5.16,-2.15 2.07,-0.27 0.25,2.07 -2.07,0.2699 z m -11.54,1.11 -1.02,-0.25 0.54,-2.0301 2.01,0.5201 -0.52,2.0299 -1,-0.2699 z m 17.5,-2.26 1.97,-0.6501 0.67,1.99 -1.99,0.6501 z m -23.56,0.02 -0.94,-0.44 0.9,-1.88 1.88,0.8999 -0.9,1.88 z m 29.16,-2.28 1.82,-1.0201 1.05,1.82 -1.82,1.0201 z m -34.7,-1.06 -0.81,-0.63 1.2301,-1.67 1.6699,1.23 -1.23,1.69 -0.86,-0.6301 z m 39.8001,-2.24 1.5899,-1.36 1.36,1.5899 -0.8,0.67 v 0.0201 l -0.79,0.6699 z"
    fill="#ffffff"
    id="path4"
  />
  <path
    d="m 69.524215,45.884232 0.2099,-2.09 2.0701,0.21 -0.0799,1.04 v -0.0201 l -0.1001,1.0501 -2.09,-0.19 z m 0.0801,-7.1101 -0.1101,-1.05 2.09,-0.19 0.19,2.07 -2.07,0.2101 -0.11,-1.05 z m -1.1701,-5.9399 -0.29,-1 2.01,-0.6101 0.29,1 0.2899,1 -1.9899,0.6101 z m -2.28,-5.6 -0.48,-0.94 1.84,-0.96 0.48,0.92 0.5,0.92 -1.86,0.9799 z m -3.32,-5.0801 -0.65,-0.81 1.63,-1.2999 1.2999,1.63 -1.63,1.2899 z m -4.2201,-4.32992 v -0.02002 l -0.7899,-0.66998 1.34,-1.59003 0.79,0.66998 0.82,0.67005 -1.36,1.60998 -0.79,-0.66998 z m -4.9699,-3.47003 -0.9199,-0.5 1.0199,-1.83997 0.92,0.51996 0.9,0.5 -1.02,1.82001 z m -5.56,-2.45001 -0.9799,-0.31 0.6499,-1.9899908 1.99,0.6500238 -0.65,1.989987 -1,-0.34002 z"
    fill="#ffffff"
    id="path6"
  />
  <path
    d="m 4.8442639,45.054232 -0.110108,-1.05 2.090089,-0.19 0.18994,2.07 -2.089965,0.19 z m -0.080078,-5.44 0.210083,-2.07 2.069946,0.21 -0.20996,2.07 z m 1.050049,-6.38 0.60998,-2.0101 1.99,0.6101 -0.57996,2.0099 -2.01001,-0.6099 z m 2.26001,-6.06 0.95996,-1.84 1.8599901,0.96 -0.47998,0.94 h -0.02002 l -0.4799801,0.9199 z m 3.3699901,-5.5 0.66993,-0.8201 0.65002,-0.8099 1.63003,1.2999 -0.65005,0.81 -0.66992,0.81 z m 4.36998,-4.77006 1.59,-1.35999 1.36,1.59003 -1.59,1.35998 z m 5.18,-3.87 1.82,-1.01996 1.02,1.83997 -0.9,0.5 -0.92,0.52002 z m 5.83,-2.779967 1,-0.3300168 0.98,-0.309997 0.6701,1.9899908 -1,0.31 -0.9801,0.34002 -0.67,-1.989987 z"
    fill="#ffffff"
    id="path8"
  />
</svg>
