<svg viewBox="0 0 84 82" fill="none" xmlns="http://www.w3.org/2000/svg">
  <path
    d="M61.4399 67.7199H13.3C12.89 67.7199 12.5601 67.3899 12.5601 66.9799C12.5601 66.5699 12.89 66.2399 13.3 66.2399H61.4399C61.8499 66.2399 62.1801 66.5699 62.1801 66.9799C62.1801 67.3899 61.8499 67.7199 61.4399 67.7199Z"
    fill="white"
  />
  <path
    d="M43.72 67.7199H17.3199C16.9099 67.7199 16.58 67.3899 16.58 66.9799C16.58 66.57 16.9099 66.2399 17.3199 66.2399H42.97V26.0699H18.0601V43.7599C18.0601 44.1699 17.7299 44.4999 17.3199 44.4999C16.9099 44.4999 16.58 44.1699 16.58 43.7599V25.3299C16.58 24.9199 16.9099 24.5899 17.3199 24.5899H43.72C44.13 24.5899 44.46 24.9199 44.46 25.3299V66.9899C44.46 67.3999 44.13 67.7299 43.72 67.7299V67.7199Z"
    fill="white"
  />
  <path
    d="M39.37 26.0699C38.96 26.0699 38.63 25.7399 38.63 25.3299V19.5899H22.42V25.3299C22.42 25.7399 22.0901 26.0699 21.6801 26.0699C21.2701 26.0699 20.9399 25.7399 20.9399 25.3299V18.8499C20.9399 18.4399 21.2701 18.1099 21.6801 18.1099H39.37C39.78 18.1099 40.11 18.4399 40.11 18.8499V25.3299C40.11 25.7399 39.78 26.0699 39.37 26.0699Z"
    fill="white"
  />
  <path
    d="M58.5699 67.7199H43.72C43.31 67.7199 42.98 67.3899 42.98 66.9799V40.9799C42.98 40.5699 43.31 40.2399 43.72 40.2399H58.5699C58.9799 40.2399 59.3101 40.5699 59.3101 40.9799V66.9799C59.3101 67.3899 58.9799 67.7199 58.5699 67.7199ZM44.47 66.2299H57.83V41.7099H44.47V66.2299Z"
    fill="white"
  />
  <path
    d="M18.84 63.0699C15.38 63.0699 12.5601 60.2499 12.5601 56.7899C12.5601 55.3599 13.0401 53.9799 13.9301 52.8699C13.8601 52.5399 13.83 52.1999 13.83 51.8599C13.83 49.0999 16.08 46.8499 18.84 46.8499C21.6 46.8499 23.85 49.0999 23.85 51.8599C23.85 52.1999 23.82 52.5399 23.75 52.8699C24.64 53.9799 25.12 55.3499 25.12 56.7899C25.12 60.2499 22.3 63.0699 18.84 63.0699ZM18.84 48.3399C16.89 48.3399 15.3101 49.9199 15.3101 51.8699C15.3101 52.2099 15.36 52.5399 15.45 52.8599C15.52 53.1099 15.46 53.3799 15.29 53.5699C14.49 54.4499 14.04 55.5999 14.04 56.7899C14.04 59.4299 16.19 61.5799 18.83 61.5799C21.47 61.5799 23.62 59.4299 23.62 56.7899C23.62 55.5899 23.18 54.4499 22.37 53.5699C22.2 53.3799 22.13 53.1099 22.21 52.8599C22.3 52.5399 22.35 52.1999 22.35 51.8699C22.35 49.9199 20.7699 48.3399 18.8199 48.3399H18.84Z"
    fill="white"
  />
  <path
    d="M18.84 67.7199C18.43 67.7199 18.1 67.3899 18.1 66.9799V59.2299C18.1 58.8199 18.43 58.4899 18.84 58.4899C19.25 58.4899 19.58 58.8199 19.58 59.2299V66.9799C19.58 67.3899 19.25 67.7199 18.84 67.7199Z"
    fill="white"
  />
  <path
    d="M37.3 34.8299C36.89 34.8299 36.5601 34.4999 36.5601 34.0899V31.6499C36.5601 31.2399 36.89 30.9099 37.3 30.9099C37.71 30.9099 38.04 31.2399 38.04 31.6499V34.0899C38.04 34.4999 37.71 34.8299 37.3 34.8299Z"
    fill="white"
  />
  <path
    d="M30.53 34.8299C30.12 34.8299 29.79 34.4999 29.79 34.0899V31.6499C29.79 31.2399 30.12 30.9099 30.53 30.9099C30.94 30.9099 31.27 31.2399 31.27 31.6499V34.0899C31.27 34.4999 30.94 34.8299 30.53 34.8299Z"
    fill="white"
  />
  <path
    d="M23.75 34.8299C23.34 34.8299 23.01 34.4999 23.01 34.0899V31.6499C23.01 31.2399 23.34 30.9099 23.75 30.9099C24.16 30.9099 24.49 31.2399 24.49 31.6499V34.0899C24.49 34.4999 24.16 34.8299 23.75 34.8299Z"
    fill="white"
  />
  <path
    d="M37.3 44.2099C36.89 44.2099 36.5601 43.8799 36.5601 43.4699V41.0299C36.5601 40.6199 36.89 40.2899 37.3 40.2899C37.71 40.2899 38.04 40.6199 38.04 41.0299V43.4699C38.04 43.8799 37.71 44.2099 37.3 44.2099Z"
    fill="white"
  />
  <path
    d="M30.53 44.2099C30.12 44.2099 29.79 43.8799 29.79 43.4699V41.0299C29.79 40.6199 30.12 40.2899 30.53 40.2899C30.94 40.2899 31.27 40.6199 31.27 41.0299V43.4699C31.27 43.8799 30.94 44.2099 30.53 44.2099Z"
    fill="white"
  />
  <path
    d="M23.75 44.2099C23.34 44.2099 23.01 43.8799 23.01 43.4699V41.0299C23.01 40.6199 23.34 40.2899 23.75 40.2899C24.16 40.2899 24.49 40.6199 24.49 41.0299V43.4699C24.49 43.8799 24.16 44.2099 23.75 44.2099Z"
    fill="white"
  />
  <path
    d="M37.3 53.5999C36.89 53.5999 36.5601 53.2699 36.5601 52.8599V50.42C36.5601 50.01 36.89 49.6799 37.3 49.6799C37.71 49.6799 38.04 50.01 38.04 50.42V52.8599C38.04 53.2699 37.71 53.5999 37.3 53.5999Z"
    fill="white"
  />
  <path
    d="M30.53 53.5999C30.12 53.5999 29.79 53.2699 29.79 52.8599V50.42C29.79 50.01 30.12 49.6799 30.53 49.6799C30.94 49.6799 31.27 50.01 31.27 50.42V52.8599C31.27 53.2699 30.94 53.5999 30.53 53.5999Z"
    fill="white"
  />
  <path
    d="M37.3 62.9899C36.89 62.9899 36.5601 62.6599 36.5601 62.2499V59.8099C36.5601 59.3999 36.89 59.0699 37.3 59.0699C37.71 59.0699 38.04 59.3999 38.04 59.8099V62.2499C38.04 62.6599 37.71 62.9899 37.3 62.9899Z"
    fill="white"
  />
  <path
    d="M30.53 62.9899C30.12 62.9899 29.79 62.6599 29.79 62.2499V59.8099C29.79 59.3999 30.12 59.0699 30.53 59.0699C30.94 59.0699 31.27 59.3999 31.27 59.8099V62.2499C31.27 62.6599 30.94 62.9899 30.53 62.9899Z"
    fill="white"
  />
  <path
    d="M53.97 48.3399H47.61C47.2 48.3399 46.87 48.0099 46.87 47.5999C46.87 47.1899 47.2 46.8599 47.61 46.8599H53.97C54.38 46.8599 54.71 47.1899 54.71 47.5999C54.71 48.0099 54.38 48.3399 53.97 48.3399Z"
    fill="white"
  />
  <path
    d="M53.97 55.0499H47.61C47.2 55.0499 46.87 54.7199 46.87 54.3099C46.87 53.8999 47.2 53.5699 47.61 53.5699H53.97C54.38 53.5699 54.71 53.8999 54.71 54.3099C54.71 54.7199 54.38 55.0499 53.97 55.0499Z"
    fill="white"
  />
  <path
    d="M53.97 61.7699H47.61C47.2 61.7699 46.87 61.4399 46.87 61.0299C46.87 60.6199 47.2 60.2899 47.61 60.2899H53.97C54.38 60.2899 54.71 60.6199 54.71 61.0299C54.71 61.4399 54.38 61.7699 53.97 61.7699Z"
    fill="white"
  />
  <mask
    id="mask0_88_37552"
    style="mask-type: luminance"
    maskUnits="userSpaceOnUse"
    x="11"
    y="0"
    width="73"
    height="73"
  >
    <path d="M83.59 0.429932H11.86V72.1599H83.59V0.429932Z" fill="white" />
  </mask>
  <g mask="url(#mask0_88_37552)">
    <path
      opacity="0.4"
      d="M83.59 36.2899C83.59 56.0999 67.53 72.1499 47.73 72.1499C27.93 72.1499 11.87 56.0899 11.87 36.2899C11.87 16.4899 27.93 0.429932 47.73 0.429932C67.53 0.429932 83.59 16.4899 83.59 36.2899Z"
      fill="white"
    />
  </g>
  <path
    d="M36.03 81.83L34.84 81.73L34.98 79.34L37.37 79.51L37.23 81.9L36.04 81.83H36.03ZM41.92 79.37L44.28 79.06L44.5699 81.42L42.21 81.73L41.92 79.37ZM28.75 80.63L27.58 80.34L28.2 78.03L30.49 78.63L29.89 80.94L28.74 80.63H28.75ZM48.73 78.05L50.97 77.31L51.73 79.58L49.46 80.32L48.72 78.05H48.73ZM21.83 78.08L20.76 77.58L21.79 75.43L23.9399 76.46L22.91 78.61L21.84 78.08H21.83ZM55.12 75.48L57.2 74.31L58.39 76.39L56.3101 77.56L55.12 75.48ZM15.5 74.26L14.5699 73.54L15.98 71.63L17.89 73.04L16.48 74.97L15.5 74.26ZM60.9399 71.71L62.75 70.16L64.3 71.97L63.39 72.74V72.76L62.48 73.52L60.9301 71.71H60.9399Z"
    fill="white"
  />
  <path
    d="M74.26 48.0299L74.5 45.64L76.86 45.8799L76.76 47.0699V47.0499L76.64 48.2399L74.25 48.0199L74.26 48.0299ZM74.36 39.92L74.24 38.7299L76.63 38.5199L76.85 40.8799L74.49 41.1199L74.37 39.9299L74.36 39.92ZM73.02 33.14L72.6899 31.9899L74.98 31.2999L75.3199 32.45L75.65 33.5899L73.38 34.2799L73.02 33.14ZM70.42 26.7399L69.87 25.67L71.97 24.5699L72.52 25.6199L73.09 26.67L70.97 27.7899L70.42 26.7399ZM66.63 20.9399L65.89 20.0099L67.75 18.5299L69.23 20.39L67.37 21.8699L66.63 20.9399ZM61.8101 15.9999V15.9799L60.9 15.2199L62.4301 13.4099L63.34 14.17L64.27 14.9299L62.72 16.7699L61.8101 15.9999ZM56.13 12.0399L55.08 11.4699L56.25 9.36993L57.3 9.96994L58.33 10.5399L57.16 12.6199L56.13 12.0499V12.0399ZM49.78 9.24994L48.66 8.88995L49.4 6.61993L51.67 7.35992L50.9301 9.62994L49.78 9.24994Z"
    fill="white"
  />
  <path
    d="M0.420044 47.0799L0.300049 45.89L2.68994 45.6799L2.91003 48.0399L0.52002 48.2499L0.420044 47.0799ZM0.319946 40.8699L0.560059 38.5099L2.92004 38.7499L2.68005 41.1099L0.319946 40.8699ZM1.51001 33.5899L2.19995 31.2999L4.46997 31.9899L3.80005 34.2799L1.51001 33.5899ZM4.08997 26.67L5.18994 24.5699L7.31006 25.67L6.76001 26.7399H6.73999L6.18994 27.7899L4.08997 26.67ZM7.93005 20.39L8.68994 19.4599L9.43005 18.5299L11.29 20.0099L10.55 20.9399L9.79004 21.8699L7.93005 20.39ZM12.92 14.95L14.73 13.3999L16.28 15.2099L14.47 16.7599L12.92 14.95ZM18.84 10.5299L20.92 9.35992L22.09 11.4599L21.0699 12.0299L20.02 12.6299L18.85 10.5299H18.84ZM25.5 7.35992L26.65 6.97995L27.77 6.61993L28.53 8.88995L27.38 9.24994L26.26 9.62994L25.5 7.35992Z"
    fill="white"
  />
</svg>
