<svg viewBox="0 0 126 106" fill="none" xmlns="http://www.w3.org/2000/svg">
  <path
    opacity="0.3"
    fill-rule="evenodd"
    clip-rule="evenodd"
    d="M59.6899 1.14996C92.3699 1.14996 118.83 21.04 118.83 45.59C118.83 60.81 108.8 74.29 92.89 82.42C92.89 82.42 93.0601 82.42 93.0601 82.59C93.0601 89.33 97.9 96.26 100.15 100.06C100.32 100.58 100.5 101.1 100.5 101.44C100.5 103.35 98.77 104.73 97.04 104.73H96.17C84.59 102.82 73.69 92.28 71.1 89.16C67.47 89.86 63.6601 89.86 59.6801 89.86C27.0001 89.86 0.530029 70.14 0.530029 45.59C0.530029 21.04 27.0001 1.14996 59.6801 1.14996H59.6899Z"
    fill="white"
  />
  <path
    fill-opacity="0"
    fill-rule="evenodd"
    clip-rule="evenodd"
    d="M65.73 1.14996C98.41 1.14996 124.87 21.04 124.87 45.59C124.87 60.81 114.84 74.29 98.9301 82.42C98.9301 82.42 99.1 82.42 99.1 82.59C99.1 89.33 103.94 96.26 106.19 100.06C106.36 100.58 106.54 101.1 106.54 101.44C106.54 103.35 104.81 104.73 103.08 104.73H102.21C90.63 102.82 79.73 92.28 77.14 89.16C73.51 89.86 69.7 89.86 65.72 89.86C33.04 89.86 6.56995 70.14 6.56995 45.59C6.56995 21.04 33.04 1.14996 65.72 1.14996H65.73Z"
    stroke="white"
    stroke-miterlimit="10"
    fill="#fff"
  />
</svg>
