<svg viewBox="0 0 15 7" fill="none" xmlns="http://www.w3.org/2000/svg">
  <g opacity="0.8">
    <path
      d="M14.21 5.11C13.5 5.07 12.79 5.11 12.08 5.11C10.19 5.13 8.29003 5.04999 6.41003 5.21999C5.40003 5.30999 4.35001 4.98001 3.38 5.49001C3.33 5.52001 3.24004 5.47003 3.17004 5.45003C2.33004 5.24003 1.46999 5.40002 0.609985 5.32002C0.489985 5.31002 0.36999 5.3 0.23999 5.3C0.23999 5.3 0.23999 5.31002 0.23999 5.32002C0.23999 5.66002 0.23999 6.00999 0.23999 6.34999C0.69999 6.33999 1.16 6.32001 1.62 6.31001C3.07 6.28001 4.52999 6.29004 5.98999 6.27004C7.99999 6.23004 10.01 6.16002 12.03 6.13002C12.82 6.12002 13.6 6.19004 14.33 5.77004C14.5 5.67004 14.72 5.66 14.7 5.42C14.67 5.13 14.43 5.13001 14.21 5.12001V5.11Z"
      fill="#CD5557"
    />
    <path
      d="M14.21 0.0200361C13.5 -0.0199639 12.79 0.0200361 12.08 0.0200361C10.19 0.0400361 8.29003 -0.0399786 6.41003 0.130021C5.40003 0.220021 4.35 -0.109959 3.38 0.400041C3.33 0.430041 3.24004 0.380002 3.17004 0.360002C2.41004 0.180002 1.64 0.270007 0.880005 0.240007C0.720005 0.290007 0.570044 0.33999 0.420044 0.40999C0.420044 0.68999 0.420044 0.970017 0.420044 1.25002C0.820044 1.24002 1.22 1.22004 1.63 1.21004C3.08 1.18004 4.54 1.19 6 1.17C8.01 1.13 10.02 1.06005 12.04 1.03005C12.83 1.02005 13.61 1.09 14.34 0.669999C14.51 0.569999 14.73 0.560024 14.71 0.320024C14.68 0.0300239 14.44 0.0300361 14.22 0.0200361H14.21Z"
      fill="#CD5557"
    />
  </g>
</svg>
