<svg viewBox="0 0 16 21" fill="none" xmlns="http://www.w3.org/2000/svg">
  <path
    opacity="0.8"
    d="M15.6 11.01C15.3 10.3 15.02 10.18 14.39 10.62C13.66 11.13 13.14 11.87 12.76 12.65C12.25 13.71 11.42 14.55 10.94 15.62C10.76 16.01 10.3301 16.31 9.80007 16.37C9.67007 14.45 9.40001 12.63 9.48001 10.83C9.54001 9.55 9.08002 8.34 9.24002 7.08C9.42002 5.63 9.21008 4.18999 9.06008 2.75999C8.97008 1.91999 8.56001 1.25996 7.99001 0.84996C7.89001 2.04996 7.71997 3.24 7.43997 4.39C7.38997 4.73 7.31998 5.06 7.32998 5.39C7.40998 6.9 7.70997 8.41001 7.18997 9.90001C7.14997 10.01 7.26997 10.17 7.31997 10.31C7.94997 12.12 7.51008 14.1 8.18008 15.91C8.21008 15.99 8.18007 16.1 8.17007 16.2C8.10007 16.88 7.74 17.13 7.22 16.74C6.04999 15.86 4.87004 15.04 3.52004 14.46C3.32004 14.38 3.17006 14.13 3.04006 13.93C2.74006 13.43 2.24003 13.4 1.76003 13.38C1.13003 13.35 0.69999 13.98 1.08999 14.44C1.50999 14.95 1.86004 15.57 2.52004 15.87C3.55004 16.33 4.41005 17.06 5.28005 17.77C6.11005 18.44 6.96 19.09 7.97 19.47C10.45 20.43 10.44 20.41 11.9 18.25C12.95 16.69 14.05 15.16 15.1 13.59C15.63 12.81 16.03 11.97 15.61 10.99L15.6 11.01Z"
    fill="#CD5557"
  />
</svg>
