<svg viewBox="0 0 16 21" fill="none" xmlns="http://www.w3.org/2000/svg">
  <path
    opacity="0.8"
    d="M0.770027 9.25003C0.980027 10 1.24005 10.15 1.92005 9.79001C2.71005 9.37001 3.32005 8.71001 3.79005 7.98001C4.43005 7.00001 5.35998 6.27004 5.96998 5.26004C6.18998 4.89004 6.65996 4.65 7.19996 4.66C7.08996 6.58 7.12995 8.42003 6.81995 10.19C6.59995 11.45 6.89997 12.71 6.58997 13.94C6.22997 15.36 6.25999 16.81 6.22999 18.25C6.20999 19.1 6.53007 19.8001 7.06007 20.2801C7.31007 19.1001 7.63006 17.95 8.05006 16.83C8.15006 16.5 8.26004 16.18 8.28004 15.85C8.39004 14.34 8.27999 12.81 8.97999 11.39C9.02999 11.29 8.93003 11.11 8.90003 10.97C8.50003 9.09 9.19001 7.19003 8.75001 5.31003C8.73001 5.22003 8.78006 5.12005 8.80006 5.02005C8.95006 4.35005 9.35007 4.15 9.81007 4.6C10.8601 5.62 11.9299 6.59005 13.1899 7.33005C13.3799 7.44005 13.5 7.7 13.6 7.91C13.84 8.44 14.3301 8.54002 14.8001 8.62002C15.4201 8.73002 15.92 8.16005 15.6 7.65005C15.24 7.09005 14.98 6.43002 14.36 6.05002C13.39 5.46002 12.64 4.63004 11.86 3.82004C11.12 3.05004 10.36 2.30001 9.41004 1.79001C7.07004 0.530007 7.06999 0.540029 5.35999 2.50003C4.11999 3.92003 2.83998 5.3 1.59998 6.72C0.979983 7.43 0.480018 8.21002 0.760018 9.24002L0.770027 9.25003Z"
    fill="#CD5557"
  />
</svg>
