<svg viewBox="0 0 129 88" fill="none" xmlns="http://www.w3.org/2000/svg">
<path d="M128.74 5.68994C128.74 5.68994 128.77 5.65995 128.77 5.64995C128.79 5.44995 128.31 5.08995 127.93 4.82995C127.91 4.80995 127.89 4.78995 127.86 4.77994C127.64 4.62994 127.47 4.52994 127.47 4.52994C126.76 4.34995 126.11 4.02995 125.41 3.82995C125.39 3.82995 125.38 3.82995 125.36 3.82995C124.58 3.73995 123.81 3.66994 123.03 3.61994C122.08 3.55994 121.06 3.56994 120.11 3.36994L119.95 3.31995C119.66 3.24995 119.37 3.14995 119.09 3.01995C119.07 3.02995 119.06 3.04995 119.04 3.05995C117.85 2.50995 116.68 1.93995 115.43 1.51995C113.25 0.799946 111.09 0.189947 108.75 0.379947C106.99 0.519947 105.31 0.909946 103.93 1.99995C102.22 3.33995 100.9 5.04995 99.84 6.94995C98.36 9.58995 97.36 12.4499 96.31 15.2699C95.07 18.5699 93.53 21.5799 90.81 23.9599C89.05 25.5099 87.44 27.25 85.84 28.9799C84.52 30.4 83.21 31.8399 81.77 33.1699C81.01 33.8699 80.14 34.5799 79.62 35.5599L78.71 36.2799C78.32 35.9499 77.98 36.1399 77.59 36.3499C76.93 36.7099 76.53 37.3699 75.9 37.7499C73.8 39.0299 71.92 40.5999 70.15 42.2999C69.66 42.77 69.22 43.3399 68.66 43.7099C66.7 45.0099 65.18 46.7899 63.44 48.3299C60.99 50.4899 58.55 52.6399 55.93 54.5999C55.45 54.9599 54.84 55.3399 54.74 55.9299C54.58 56.9299 53.87 57.2199 53.12 57.5099C51.92 57.9799 50.63 58.2799 49.51 58.8899C47.93 59.7599 46.19 60.2299 44.58 61.0099C41.86 62.3099 38.98 63.2099 36.18 64.3199C34.05 65.1699 31.88 65.95 29.73 66.7599C27.37 67.6499 25.07 68.7199 22.71 69.6199C18.56 71.2099 14.39 72.7499 10.2 74.2399C7.61 75.1599 4.96 75.9399 2.34 76.7899C1.81 76.9599 1.26 77.1 0.880002 77.5499C0.470002 78.03 0.500002 78.7199 0.990002 79.0899C1.56 79.5199 2.18 79.8599 2.95 79.7899C3.36 79.7499 3.76 79.7899 4.13 79.9999C4.96 80.4699 5.72 80.2199 6.46 79.7599C6.56 79.7599 6.65 79.7399 6.75 79.7399C6.9 79.8699 7.08001 79.8199 7.26001 79.8299C8.99001 79.8899 10.46 79.1799 11.8 78.2099C13.99 76.6099 16.47 75.7499 19.08 75.1899C19.33 75.1899 19.59 75.1899 19.84 75.1899C19.94 75.13 20.04 75.0799 20.14 75.0399C20.04 75.09 19.94 75.1399 19.84 75.1899C20.12 75.41 20.37 75.1899 20.62 75.1199C22.9 74.45 25.11 73.5799 27.34 72.7499C30.16 71.6899 32.92 70.4899 35.68 69.3099C38.13 68.2699 40.66 67.5099 43.14 66.5599C44.83 65.9099 46.6 65.41 48.28 64.7499C50.91 63.7099 53.59 62.7999 56.23 61.7599C56.85 61.5099 57.54 61.3899 58.04 60.8799C58.18 60.8199 58.32 60.7699 58.47 60.7099C59.07 60.7299 59.57 60.4599 60.05 60.1399C60.23 60.0699 60.42 60.0099 60.6 59.9399C60.95 60.0599 61.24 59.8699 61.51 59.7199C62.5 59.1799 63.55 58.9399 64.68 58.9799C65.01 58.9899 65.39 59.0599 65.68 58.7899C66.48 58.7699 67.28 58.7599 68.08 58.7399C69.4 58.8599 70.72 58.8399 72.04 58.7399C72.19 58.7599 72.34 58.7699 72.48 58.7899C72.48 58.7499 72.49 58.7099 72.51 58.6799C72.49 58.6399 72.47 58.6099 72.45 58.5899C72.47 58.6199 72.49 58.6499 72.51 58.6799C72.5 58.7199 72.49 58.7499 72.48 58.7899C73.79 59.2099 75.14 59.1199 76.49 59.0499C76.59 59.0999 76.68 59.1399 76.78 59.1899C77.05 59.7399 77.54 59.6299 77.95 59.5199C78.6 59.3499 79.27 59.3799 79.82 59.6199C80.73 60.02 81.64 59.9899 82.57 59.9999C83.08 59.9999 83.57 60.1799 84.06 60.2199C85.38 60.3199 86.68 60.7899 88.03 60.5999C88.31 60.5599 88.58 60.5399 88.86 60.5099C89.49 60.4499 89.76 60.7999 89.71 61.3799C89.6 62.6399 89.47 63.8999 89.11 65.1199C88.95 65.6799 88.88 66.2499 89.07 66.8299C89.07 66.9199 89.06 67.0099 89.05 67.0999C88.83 67.3199 88.85 67.5399 89.04 67.7599C89.06 67.9999 89.08 68.24 89.1 68.4799C89.14 69.3999 89.46 70.2599 89.9 71.0299C91.29 73.4799 92 76.1899 92.89 78.8099C93.41 80.3499 93.98 81.8699 94.6 83.3599C92.04 83.8999 87.42 82.7 90.31 86.6899C90.31 86.6899 91.04 87.3799 90.87 86.3699C90.67 85.2399 94.34 86.16 95.74 84.85C97.07 83.99 98.43 84.07 99.88 84.35C100.34 84.4 104.81 85.1499 107.57 85.5099C109.2 85.7499 113.61 86.2499 114.55 87.6899C115.8 84.9299 113.77 81.8399 112.83 81.1999C111.23 80.1099 105.33 82.7899 103.61 82.8099C101.98 82.8299 100.57 82.63 99.47 82.46C99.85 81.83 100.46 81.1299 99.81 80.4499C98.91 79.5199 98.4 78.3599 97.61 77.3999C96.46 75.9899 95.83 74.2899 94.74 72.8599C93.7 71.4999 93.89 69.95 94.37 68.4399C94.72 67.34 95.22 66.2799 95.54 65.1699C95.7 64.5899 95.95 63.9699 95.74 63.3299C95.74 63.3299 95.74 63.3199 95.74 63.3099C96.27 62.2099 97.22 60.6999 98.04 59.4299C98.2 59.2399 98.33 59.0299 98.45 58.8099C98.81 58.2599 99.13 57.79 99.35 57.4799C99.49 57.3899 99.57 57.2099 99.66 57.0399C100.63 55.1199 101.86 53.3699 103.3 51.7799C103.78 51.2599 104.3 50.7799 104.73 50.2099C110.03 46.3799 111.69 41.7099 112.17 39.6899C112.25 39.6399 112.3 39.5599 112.32 39.4399C112.59 37.9799 112.83 36.4899 112.99 35.0199C113.01 34.8899 113.03 34.75 113.03 34.6199C113.2 32.8999 113.15 31.1599 113.03 29.4299C113 27.4299 112.94 25.3099 112.89 23.4799C112.92 23.43 112.93 23.3699 112.93 23.3099C112.93 22.4999 112.93 21.6999 112.93 20.8899C112.93 20.8499 112.93 20.8099 112.91 20.7699L113.06 16.2999C114.08 12.6899 115.75 10.1499 116.27 9.40995C116.27 9.39995 116.27 9.38995 116.27 9.36994C117.19 9.09994 117.76 8.85995 117.76 8.85995C117.86 8.83995 117.97 8.81995 118.07 8.80995C118.14 8.80995 118.21 8.78994 118.29 8.77994C118.3 8.77994 118.32 8.75995 118.33 8.74995C119.15 8.55995 119.91 8.38995 120.6 8.22995C120.85 8.15995 121.1 8.08995 121.35 8.01995C121.35 8.01995 121.37 8.01995 121.38 8.01995C121.88 7.87995 122.39 7.72994 122.9 7.59994C123.05 7.55994 123.2 7.52995 123.35 7.48995C123.46 7.45995 123.56 7.43994 123.67 7.41994C123.94 7.39994 124.22 7.35995 124.51 7.31995C125.27 7.19995 125.89 7.07995 126.4 6.96995C126.48 6.95995 126.56 6.93995 126.65 6.92995C126.65 6.92995 126.65 6.91995 126.65 6.90995C126.75 6.88995 126.85 6.85995 126.94 6.83995C127.05 6.81995 127.16 6.78995 127.27 6.74995C127.43 6.70995 127.57 6.65995 127.7 6.61995C127.7 6.61995 127.7 6.61995 127.71 6.61995C127.76 6.59995 127.8 6.57995 127.84 6.55995C128.75 6.23995 128.66 6.02994 128.66 6.02994C128.78 5.90995 128.8 5.79995 128.74 5.70995V5.68994ZM2.34 79.3299C1.77 79.1799 1.42001 79.0499 1.22001 78.8899C1.43001 79.0599 1.78 79.1799 2.34 79.3299ZM2.64 78.0699H2.63C2.28 78.2599 2.3 78.52 2.34 78.7999C2.3 78.53 2.29 78.2599 2.63 78.0699H2.64C2.67 77.7699 2.83001 77.6599 3.05001 77.6299C2.83001 77.6599 2.67 77.7599 2.64 78.0599V78.0699ZM3.33001 77.1499C3.33001 77.1499 3.30001 77.1499 3.29001 77.1499H3.33001C3.62001 76.7199 4.05 76.5999 4.5 76.5099C4.06 76.6099 3.62001 76.7199 3.33001 77.1499ZM5.06 78.5499C5.06 78.5499 5.08001 78.45 5.08001 78.41C4.85001 78.3999 4.63001 78.3999 4.41001 78.4499C4.62001 78.3999 4.84001 78.39 5.08001 78.41C5.08001 78.46 5.08 78.4999 5.06 78.5499ZM4.93 77.4699C4.95 77.3099 5.03001 77.2399 5.16001 77.1999C5.04001 77.2399 4.95 77.3099 4.93 77.4699ZM6.7 75.7899C6.14 75.8299 5.66001 76.1199 5.16001 76.3299C5.67001 76.13 6.14 75.8299 6.7 75.7899ZM6.84 75.7399C7.18 75.5699 7.54001 75.4499 7.91001 75.3399C7.54001 75.4399 7.18 75.5599 6.84 75.7399ZM10.79 78.4399C9.51001 78.2199 8.33 78.4699 7.18 78.9899C8.33 78.4699 9.51001 78.2299 10.79 78.4399ZM13.04 77.0699C12.55 77.4299 12.1 77.8399 11.57 78.1299C12.1 77.8399 12.55 77.4199 13.04 77.0699ZM17.26 74.8999C17.29 74.8299 17.33 74.7699 17.36 74.7099C17.32 74.7699 17.29 74.8299 17.26 74.8999ZM22.58 72.7699C22.68 72.7599 22.78 72.7599 22.89 72.7699C22.89 72.7299 22.89 72.7 22.89 72.66C22.89 72.66 22.89 72.7299 22.89 72.7699C22.78 72.7699 22.68 72.7699 22.58 72.7699ZM23.17 73.0499C23.27 73.02 23.34 72.9399 23.35 72.7799C23.7 72.7499 24.03 72.6499 24.35 72.5299C24.03 72.6499 23.7 72.7499 23.35 72.7899C23.34 72.95 23.27 73.0299 23.17 73.0599V73.0499ZM26.99 72.6099C25.84 73.0299 24.69 73.4499 23.54 73.8799C24.69 73.4499 25.84 73.0399 26.99 72.6099ZM31.25 66.8599C31.41 66.77 31.58 66.6999 31.75 66.6399C31.58 66.6999 31.4 66.7599 31.25 66.8599ZM40.24 67.2999C40.16 67.38 40.07 67.42 39.97 67.4399C40.07 67.42 40.16 67.3899 40.24 67.2999ZM40.11 63.2599C40.25 63.1999 40.39 63.16 40.55 63.16C40.4 63.16 40.26 63.1999 40.11 63.2599ZM40.74 67.2299C40.74 67.2299 40.82 67.1799 40.85 67.1299C40.82 67.1799 40.78 67.21 40.74 67.2299ZM40.85 63.0299C40.94 63.0299 41.03 63.0099 41.12 62.9999C41.96 62.5699 42.82 62.1899 43.69 61.8299C42.82 62.1899 41.96 62.5599 41.12 62.9999C41.03 62.9999 40.94 63.0199 40.85 63.0299ZM42.68 66.3999C42.49 66.4699 42.3 66.5499 42.11 66.6199C41.94 66.81 41.73 66.8899 41.5 66.9399C41.73 66.8999 41.95 66.8199 42.11 66.6199C42.3 66.5499 42.49 66.4699 42.68 66.3999C43.59 66.2799 44.42 65.8799 45.25 65.5299C44.41 65.8799 43.59 66.27 42.68 66.3999ZM47.55 64.2599C46.35 64.5799 45.21 65.0599 44.09 65.5699C45.21 65.0599 46.35 64.5699 47.55 64.2599C47.98 63.7999 48.51 63.5299 49.07 63.3099C48.51 63.5199 47.98 63.7899 47.55 64.2599ZM53 58.2899C52.15 58.6999 51.24 58.9299 50.35 59.2499C51.24 58.9299 52.16 58.7099 53 58.2899C53.19 58.0699 53.44 57.9399 53.69 57.8399C53.43 57.9399 53.19 58.0699 53 58.2899ZM54.07 57.6799C54.07 57.5699 54.11 57.4899 54.17 57.4399C54.11 57.4899 54.07 57.5599 54.07 57.6699V57.6799ZM55.43 56.91C55.14 57.02 54.84 57.1399 54.55 57.2499C54.49 57.2899 54.44 57.3399 54.38 57.3799L54.55 57.2499C54.84 57.1399 55.14 57.02 55.43 56.91C55.5 56.65 55.66 56.5399 55.87 56.5099C55.66 56.5399 55.49 56.65 55.43 56.91ZM56.34 56.4499C56.42 56.1899 56.58 56.0899 56.79 56.0599C56.58 56.0799 56.41 56.1899 56.34 56.4499ZM57.26 55.9999C57.54 55.5899 57.94 55.4499 58.37 55.3499C57.94 55.4399 57.54 55.5899 57.26 55.9999ZM67.55 49.6999C67.61 49.5099 67.74 49.4299 67.9 49.4299C67.74 49.4299 67.62 49.5099 67.55 49.6999C67.53 49.6999 67.51 49.6999 67.5 49.6999C67.52 49.6999 67.53 49.6999 67.55 49.6999ZM64.29 48.7799C64.13 49.0799 64.06 49.3799 64.13 49.6199C64.19 49.6199 64.27 49.6399 64.31 49.6199C64.26 49.6199 64.18 49.6199 64.13 49.6199C64.06 49.3799 64.13 49.0699 64.29 48.7799ZM58.94 55.2399C58.94 55.2399 58.85 55.25 58.8 55.2599C58.84 55.2599 58.89 55.2399 58.94 55.2399ZM61.58 51.7699C62.54 51.5599 63.26 50.9699 63.97 50.3699C63.25 50.9699 62.53 51.5599 61.58 51.7699ZM61.82 53.2499C61.98 53.0599 62.18 52.9199 62.4 52.8099C62.19 52.9199 61.99 53.0599 61.82 53.2499ZM63.5 58.1499C63.52 58.0999 63.54 58.0099 63.57 57.9699C63.55 58.0099 63.53 58.0899 63.5 58.1499ZM65.34 52.9799C65.58 52.81 65.81 52.6299 66.06 52.4899C65.81 52.6399 65.58 52.81 65.34 52.9799ZM66.52 57.8099C66.28 57.8299 66.01 57.8899 65.91 58.0599C66.02 57.8899 66.29 57.8299 66.52 57.8099ZM64.4 50.9799C64.07 51.2 63.77 51.4499 63.5 51.7399C63.77 51.4599 64.07 51.2 64.4 50.9799C65.16 50.2 66.15 49.9399 67.17 49.7499C67.26 49.7499 67.36 49.7299 67.45 49.7199C67.36 49.7299 67.26 49.7399 67.17 49.7499C66.15 49.9399 65.16 50.2 64.4 50.9799ZM67.2 57.3799C67.2 57.3799 67.25 57.3699 67.28 57.3599C67.25 57.3599 67.22 57.3599 67.2 57.3799ZM68.08 58.6899C68.08 58.6899 68.08 58.6499 68.08 58.6299C68.08 58.6499 68.08 58.6699 68.08 58.6899ZM68.08 52.1999C68.11 52.1299 68.12 52.0199 68.15 51.9599C68.12 52.0099 68.1 52.1299 68.08 52.1999ZM68.52 49.4399C68.36 49.4399 68.2 49.4399 68.05 49.4299L68.12 49.0199C68.1 49.1499 68.08 49.2899 68.05 49.4199C68.21 49.4199 68.37 49.4199 68.52 49.4299C68.52 49.2899 68.53 49.1499 68.54 48.9999C68.4 48.9999 68.26 48.9999 68.11 48.9999C68.25 48.9999 68.39 48.9999 68.54 48.9999C68.56 48.9999 68.58 48.9899 68.6 48.9799C68.58 48.9799 68.56 48.9899 68.54 48.9999C68.54 49.1399 68.53 49.2799 68.52 49.4299C68.55 49.4299 68.58 49.4399 68.61 49.4299C68.58 49.4299 68.55 49.4299 68.52 49.4299V49.4399ZM69.8 55.7499C69.99 55.6899 70.18 55.6199 70.36 55.5599C70.39 55.4599 70.44 55.3799 70.5 55.3199C70.44 55.3799 70.39 55.4499 70.36 55.5599C70.17 55.6199 69.98 55.6899 69.8 55.7499ZM70.71 58.5599C70.55 58.4299 70.39 58.3599 70.23 58.3199C70.39 58.3499 70.55 58.4299 70.71 58.5599ZM72.2 55.1099C72.2 55.1099 72.22 55.0899 72.23 55.0799C72.23 55.0799 72.21 55.0999 72.2 55.1099ZM89.45 68.9799C89.45 68.9799 89.41 68.8899 89.39 68.8399C89.41 68.8899 89.43 68.9299 89.45 68.9799C89.58 69.24 89.71 69.4899 89.83 69.7499C89.7 69.4899 89.57 69.24 89.45 68.9799ZM89.25 59.2099C89.25 59.2099 89.15 59.1899 89.11 59.1699C89.16 59.1799 89.21 59.1999 89.25 59.2099ZM90.42 71.41C90.21 71.13 90.03 70.8299 89.92 70.5099C90.03 70.8299 90.21 71.1199 90.42 71.41C90.44 71.4999 90.45 71.5799 90.49 71.66C90.46 71.5799 90.44 71.4999 90.42 71.41ZM91.03 71.6099C91.22 71.5599 91.45 71.6899 91.66 71.7299C91.74 71.8299 91.85 71.8799 91.95 71.8799C91.84 71.8799 91.74 71.8299 91.66 71.7299C91.45 71.7 91.22 71.5699 91.03 71.6099ZM95.22 74.4199C95.64 74.6799 95.75 75.0999 95.85 75.5099C95.75 75.09 95.63 74.6699 95.22 74.4199C95.08 74.1799 94.95 73.95 94.81 73.7199C94.96 73.95 95.09 74.1899 95.23 74.4199H95.22ZM94.41 20.3999C94.41 20.2899 94.41 20.1899 94.46 20.0999C94.42 20.1799 94.41 20.2899 94.42 20.3999H94.41ZM98.36 10.9599C98.37 10.9199 98.39 10.8899 98.4 10.8499C98.39 10.8899 98.38 10.9199 98.36 10.9599ZM100.35 6.70995C100.11 7.37995 99.72 7.96995 99.39 8.58995C99.72 7.96995 100.11 7.36995 100.35 6.69995V6.70995ZM100.93 6.06995C100.9 5.67995 101.18 5.45995 101.39 5.21995C101.18 5.45995 100.9 5.68995 100.93 6.06995ZM111.87 38.6699C111.92 38.4799 111.95 38.2899 111.91 38.0799C111.91 38.0499 111.91 38.0299 111.92 37.9999C111.92 38.0299 111.92 38.0499 111.91 38.0799C111.95 38.2899 111.93 38.4799 111.87 38.6699ZM111.9 3.28995C112.11 3.24995 112.34 3.24995 112.55 3.28995C112.34 3.23995 112.11 3.23995 111.9 3.28995ZM112.28 37.41C112.33 37.34 112.34 37.2699 112.28 37.1699C112.35 37.2699 112.33 37.3499 112.28 37.41ZM112.4 4.35995C112.35 4.47995 112.29 4.58995 112.19 4.55995C112.29 4.59995 112.35 4.48995 112.4 4.35995ZM114.5 1.68994C114.62 1.70994 114.75 1.68995 114.87 1.71995C114.75 1.69995 114.62 1.71994 114.5 1.68994ZM117.06 5.71995C117.06 5.71995 117.07 5.68994 117.08 5.66994C116.98 5.66994 116.87 5.66994 116.77 5.66994C116.82 5.52994 116.89 5.40995 116.97 5.32995C116.89 5.40995 116.82 5.51994 116.77 5.66994C116.87 5.66994 116.98 5.66994 117.08 5.66994C117.08 5.68994 117.07 5.70995 117.06 5.71995ZM118 3.83995C118.08 3.83995 118.16 3.83995 118.23 3.83995C118.15 3.83995 118.07 3.83995 118 3.83995C118 3.75995 117.97 3.68995 117.94 3.62995C117.97 3.68995 117.99 3.75995 118 3.83995ZM117.96 5.33995C118.36 5.33995 118.75 5.21995 119.15 5.19995C118.75 5.20995 118.36 5.32995 117.96 5.33995ZM119.55 5.22995C119.3 5.41995 119.02 5.50995 118.74 5.55995C119.02 5.50995 119.29 5.40995 119.55 5.22995C119.64 5.22995 119.73 5.22995 119.81 5.22995C119.72 5.22995 119.63 5.22995 119.55 5.22995ZM121.97 5.67995C121.97 5.35995 121.87 5.23995 121.71 5.19995C121.86 5.23995 121.97 5.36995 121.97 5.67995Z" fill="white"/>
</svg>
