<svg viewBox="0 0 100 72" fill="none" xmlns="http://www.w3.org/2000/svg">
<g opacity="0.4">
<mask id="mask0_92_47991" style="mask-type:luminance" maskUnits="userSpaceOnUse" x="10" y="10" width="62" height="62">
<path d="M71.36 10.24H10.47V71.13H71.36V10.24Z" fill="white"/>
</mask>
<g mask="url(#mask0_92_47991)">
<path d="M71.35 40.69C71.35 57.5 57.72 71.13 40.91 71.13C24.1 71.13 10.47 57.5 10.47 40.69C10.47 23.88 24.1 10.25 40.91 10.25C57.72 10.25 71.35 23.88 71.35 40.69Z" fill="white"/>
</g>
</g>
<path d="M9.56009 0.77002C12.5201 5.87002 15.38 10.67 18.1 15.54C19.09 17.31 19.23 19.32 18.77 21.32C17.89 25.1 15.59 27.6 11.84 28.53C8.08999 29.46 4.79998 28.4 2.32998 25.42C-0.140016 22.44 -0.720025 18.94 1.06997 15.52C3.65997 10.58 6.63009 5.83002 9.56009 0.77002ZM17.0301 20.64C16.9301 20.53 16.69 20.27 16.46 20.02C16.25 20.29 15.89 20.55 15.84 20.85C15.5 22.88 14.56 24.37 12.51 25.06C12.26 25.14 12.15 25.61 11.97 25.9C12.31 25.99 12.67 26.22 12.97 26.16C15.07 25.74 17.0801 23.09 17.0301 20.64Z" fill="white"/>
</svg>
