<svg viewBox="0 0 94 90" fill="none" xmlns="http://www.w3.org/2000/svg">
<path d="M90.2299 12.99C90.2299 12.99 87.6099 12.09 84.9499 10.76C83.8599 10.21 83.1199 10.19 82.9199 9.99999C81.8199 9.32999 81.7599 7.98999 81.4099 7.27999C80.5299 5.43999 79.8899 4.32998 79.2799 3.57998C78.4099 2.49998 77.3099 1.79999 76.1499 1.34999C74.4799 0.709995 72.6699 0.569978 71.1199 0.519978C66.9899 0.379978 64.1699 3.19998 62.6599 9.20998C61.4199 12.27 61.4899 18.51 62.8699 27.92C62.7899 29.34 62.2999 30.7 61.4299 31.98C61.6099 32.22 59.6399 32.25 55.5099 32.08C50.4099 32.83 53.6299 32.02 39.7099 36.46C34.5099 39.03 29.9099 40.92 25.9299 42.12L20.3499 45.67C17.3999 46.27 15.0999 47 13.4699 47.86C13.1499 48.08 12.7399 48.78 12.8099 49.21C12.8599 49.49 13.3099 49.64 14.1399 49.57C13.4599 49.84 12.2399 50.4 11.7699 50.74C4.5699 52.14 0.709922 53.3 0.169922 54.24C0.269922 54.51 1.09991 55.09 2.65991 55.95C9.60991 55.14 10.6999 54.94 11.3699 55.01C11.5199 55.02 13.2899 54.75 13.2899 54.75C13.2899 54.75 12.2099 55.3 12.3699 55.34C16.7099 57.68 19.4299 58.61 20.8599 58.45C25.7699 61.55 33.0499 65.37 38.5899 68.12C38.1299 69.43 37.9399 71.33 38.1899 72.6L39.9699 77.6C41.5099 83.59 42.4699 83.44 40.2799 84.62L39.8999 85.76C40.2099 85.95 40.5199 85.63 40.7699 85.76C40.9499 85.85 41.7299 84.88 41.8799 84.94C42.7199 85.25 42.6199 86.64 43.4599 86.41C46.1199 87.41 46.8799 87.85 48.4199 88.82C48.6399 88.93 50.3399 89.2 50.5899 89.77C51.0399 89.25 50.1299 88.66 50.0099 88.56C49.5399 88.21 49.3899 87.94 50.0499 87.63C50.1199 87.7 50.4099 87.7 50.9399 87.58C52.5099 87.25 53.1499 86.44 55.4999 86.9C55.7399 86.83 55.9999 87.35 56.0799 87.36C56.1999 87.01 55.9899 86.68 55.6399 86.46C54.4599 85.57 53.8999 84.94 53.9699 84.58C53.9699 84.24 54.7699 83.94 55.2799 83.96C55.4099 83.96 55.7199 84.39 55.7899 84.45C55.8299 84.43 55.7099 83.97 55.6899 83.89C55.6699 83.79 55.5699 83.73 55.5299 83.67C55.4199 83.49 55.2099 83.39 54.6599 83.17C53.7699 82.82 51.9099 82.94 48.2699 82.9C46.5099 82.46 45.5899 83.06 45.0299 82.98C44.5999 82.92 44.4399 82.68 44.1099 81.98C42.9199 80.02 42.2199 76.27 42.0499 74.73C42.0199 73.94 41.8699 72.36 42.0799 71.35C42.2599 70.51 42.5499 69.85 42.8199 69.39C43.5699 69.54 44.3199 69.66 45.0799 69.77C45.3899 70.46 45.7099 71.11 45.7799 71.24C47.7699 74.13 47.7499 74.31 47.8899 74.76C48.0199 76.19 48.1099 76.6 47.8499 76.74C46.6499 77.2 46.7899 77.32 46.5399 78.02C46.5799 78.32 46.8799 78.45 47.2099 78.32C47.9299 77.79 48.3199 77.53 48.7199 77.71C48.7699 77.85 49.4499 78.73 50.3999 79.64C50.8899 80 51.8499 80.41 53.2899 80.87C53.5999 81.1 53.9999 81.35 54.4899 81.63C55.2399 82.47 55.6099 82.85 55.6099 82.77C55.6399 82.78 55.6899 82.77 55.7499 82.71C55.8599 82.78 55.9599 82.86 56.0399 82.95C56.1599 83.1 56.2299 83.28 56.2099 83.47C56.2599 83.47 56.4399 83.26 56.4499 83.21C56.5099 82.88 56.2599 82.69 56.0999 82.41C56.0399 82.3 55.9099 82.22 56.4199 81.83C57.1299 81.72 56.9299 81.3 57.8899 81.33C58.3099 81.34 59.5699 81.2 60.5799 81.23C62.2299 81.3 62.2399 81.83 63.7399 81.42C63.9599 81.36 64.8699 81.04 65.3499 80.9C65.3699 80.9 65.3899 80.89 65.4099 80.88C65.4599 80.87 65.5299 80.95 65.6599 81.07C65.8099 81.22 65.8299 81.36 65.9299 81.45C65.9499 80.98 65.7899 80.88 65.6499 80.77C65.5599 80.69 65.5599 80.65 65.5299 80.62C64.9099 80.17 63.7799 80.14 63.7399 79.77C64.1099 79.54 64.2999 79.58 64.9699 79.5C65.0099 79.5 65.0399 79.43 65.0899 79.42C65.1299 79.42 65.1899 79.46 65.2499 79.52C65.3399 79.6 65.4399 79.69 65.4999 79.69C65.4499 79.55 65.4099 79.41 65.3299 79.33C65.2299 79.22 65.0999 79.19 65.0099 79.14C64.4999 78.83 63.6599 78.59 62.3899 78.32C57.2899 78.36 58.9199 78.42 55.1399 78.08C54.5799 77.89 54.7599 77.92 53.5199 78.08C52.3899 77.99 51.7999 77.86 51.4599 77.39C51.1899 77.02 50.8099 75.01 49.6899 72.37L49.2099 70.17C49.3299 70.17 49.4399 70.18 49.5599 70.19C50.7099 70.36 52.9599 69.7 56.3199 68.18C61.4099 67.84 61.8699 67.07 70.0299 63.97C72.7599 62.49 74.7099 61.06 76.8499 57.99C77.7299 56.72 78.1299 55.07 79.4499 53.17C80.9099 51.07 82.0999 46.27 81.7099 39.87C79.8499 32.92 77.1999 27.47 73.7599 23.51C73.0799 20.67 72.9599 18.97 73.4099 18.41C74.2699 18.17 76.6099 17.68 79.5299 15.68C79.8099 15.49 80.5999 14.87 80.9599 14.78C84.2799 15.51 86.4099 15.92 88.7899 16.28C91.6999 16.72 93.0999 17.02 93.2799 16.17C93.3299 15.36 93.4999 14.56 90.2199 12.97L90.2299 12.99Z" fill="white"/>
</svg>
