<svg width="18" height="17" viewBox="0 0 18 17" fill="none" xmlns="http://www.w3.org/2000/svg">
<path d="M8.90002 16.95C4.42002 16.95 0.77002 13.2999 0.77002 8.81995C0.77002 4.33995 4.42002 0.689941 8.90002 0.689941C13.38 0.689941 17.03 4.33995 17.03 8.81995C17.03 13.2999 13.38 16.95 8.90002 16.95ZM8.90002 1.53992C4.88002 1.53992 1.62 4.80995 1.62 8.81995C1.62 12.8299 4.89002 16.0999 8.90002 16.0999C12.91 16.0999 16.1801 12.8299 16.1801 8.81995C16.1801 4.80995 12.91 1.53992 8.90002 1.53992Z" fill="white"/>
<path d="M6.65002 8.06995C7.06976 8.06995 7.41003 7.45658 7.41003 6.69995C7.41003 5.94332 7.06976 5.32996 6.65002 5.32996C6.23029 5.32996 5.89001 5.94332 5.89001 6.69995C5.89001 7.45658 6.23029 8.06995 6.65002 8.06995Z" fill="white"/>
<path d="M11.16 8.06995C11.5798 8.06995 11.92 7.45658 11.92 6.69995C11.92 5.94332 11.5798 5.32996 11.16 5.32996C10.7403 5.32996 10.4 5.94332 10.4 6.69995C10.4 7.45658 10.7403 8.06995 11.16 8.06995Z" fill="white"/>
<path d="M8.89997 10.2299C7.02997 10.2299 5.31999 11.3299 4.54999 13.0399C4.47999 13.1899 4.5499 13.3599 4.6999 13.4299C4.8499 13.4999 5.01991 13.43 5.08991 13.28C5.75991 11.78 7.25997 10.8199 8.89997 10.8199C10.54 10.8199 12.0399 11.79 12.7099 13.28C12.7799 13.43 12.9499 13.4899 13.0999 13.4299C13.2499 13.3599 13.3099 13.1899 13.2499 13.0399C12.4799 11.3299 10.77 10.2299 8.89997 10.2299Z" fill="white"/>
</svg>
