<svg width="17" height="17" viewBox="0 0 17 17" fill="none" xmlns="http://www.w3.org/2000/svg">
<path d="M6.29016 7.88C6.7099 7.88 7.05017 7.26664 7.05017 6.51001C7.05017 5.75338 6.7099 5.14001 6.29016 5.14001C5.87042 5.14001 5.53015 5.75338 5.53015 6.51001C5.53015 7.26664 5.87042 7.88 6.29016 7.88Z" fill="white"/>
<path d="M10.8002 7.88C11.2199 7.88 11.5602 7.26664 11.5602 6.51001C11.5602 5.75338 11.2199 5.14001 10.8002 5.14001C10.3804 5.14001 10.0402 5.75338 10.0402 6.51001C10.0402 7.26664 10.3804 7.88 10.8002 7.88Z" fill="white"/>
<path d="M8.54021 13.26C6.67021 13.26 4.96011 12.16 4.19011 10.45C4.12011 10.3 4.19013 10.13 4.34013 10.06C4.49013 9.98998 4.66015 10.06 4.73015 10.21C5.40015 11.71 6.90021 12.67 8.54021 12.67C10.1802 12.67 11.6801 11.7 12.3501 10.21C12.4201 10.06 12.5902 9.99998 12.7402 10.06C12.8902 10.13 12.9502 10.3 12.8902 10.45C12.1202 12.16 10.4102 13.26 8.54021 13.26Z" fill="white"/>
<path d="M8.54016 16.75C4.06016 16.75 0.410156 13.1 0.410156 8.62C0.410156 4.14 4.06016 0.48999 8.54016 0.48999C13.0202 0.48999 16.6702 4.14 16.6702 8.62C16.6702 13.1 13.0202 16.75 8.54016 16.75ZM8.54016 1.34003C4.52016 1.34003 1.26013 4.60999 1.26013 8.62C1.26013 12.63 4.53016 15.9 8.54016 15.9C12.5502 15.9 15.8201 12.63 15.8201 8.62C15.8201 4.60999 12.5502 1.34003 8.54016 1.34003Z" fill="white"/>
</svg>
