<svg width="18" height="17" viewBox="0 0 18 17" fill="none" xmlns="http://www.w3.org/2000/svg">
<path d="M9.10999 16.95C4.62999 16.95 0.97998 13.2999 0.97998 8.81995C0.97998 4.33995 4.62999 0.689941 9.10999 0.689941C13.59 0.689941 17.24 4.33995 17.24 8.81995C17.24 13.2999 13.59 16.95 9.10999 16.95ZM9.10999 1.53992C5.08999 1.53992 1.82996 4.80995 1.82996 8.81995C1.82996 12.8299 5.09999 16.0999 9.10999 16.0999C13.12 16.0999 16.39 12.8299 16.39 8.81995C16.39 4.80995 13.12 1.53992 9.10999 1.53992Z" fill="white"/>
<path d="M6.85999 8.06995C7.27972 8.06995 7.62 7.45658 7.62 6.69995C7.62 5.94332 7.27972 5.32996 6.85999 5.32996C6.44025 5.32996 6.09998 5.94332 6.09998 6.69995C6.09998 7.45658 6.44025 8.06995 6.85999 8.06995Z" fill="white"/>
<path d="M11.37 8.06995C11.7897 8.06995 12.13 7.45658 12.13 6.69995C12.13 5.94332 11.7897 5.32996 11.37 5.32996C10.9503 5.32996 10.61 5.94332 10.61 6.69995C10.61 7.45658 10.9503 8.06995 11.37 8.06995Z" fill="white"/>
<path d="M12.39 12.14H5.82996C5.66996 12.14 5.53003 12.01 5.53003 11.84C5.53003 11.67 5.65996 11.5399 5.82996 11.5399H12.39C12.55 11.5399 12.6899 11.67 12.6899 11.84C12.6899 12.01 12.56 12.14 12.39 12.14Z" fill="white"/>
</svg>
