<svg viewBox="0 0 21 43" fill="none" xmlns="http://www.w3.org/2000/svg">
  <path
    d="M13.5901 4.17009C12.7201 4.86009 13.0101 5.72007 13.5401 6.31007C14.6701 7.57007 15.9301 8.72007 17.1801 9.87007C17.8601 10.5001 18.6901 10.9701 19.3501 11.6201C20.9601 13.2501 21.2902 15.1101 20.2802 17.1801C18.6202 20.5801 15.7501 22.4201 12.1501 23.1801C11.3101 23.3601 10.9501 23.6001 10.9801 24.5001C11.0301 26.5501 11.0001 28.6001 11.0001 30.8301C12.0301 30.8301 13.0401 30.8001 14.0401 30.8301C15.0701 30.8601 16.5201 31.9601 16.7101 32.9401C16.8101 33.4501 16.6301 34.0101 16.5801 34.5501C16.4701 34.5501 16.3601 34.5501 16.2401 34.5501C16.1801 34.3201 16.1201 34.1001 16.0701 33.8701C15.7001 32.0201 14.9501 31.3901 13.0901 31.3901C12.4001 31.3901 11.7002 31.3901 10.7802 31.3901V41.1501C11.5702 41.3701 12.4901 41.5701 13.3501 41.9001C13.6001 42.0001 13.7002 42.4901 13.7802 42.6301H7.57013C7.55013 42.5701 7.53013 42.5001 7.51013 42.4401C8.32013 42.1301 9.1201 41.8201 9.8501 41.5401C9.8501 38.3401 9.87012 35.2001 9.81012 32.0601C9.81012 31.8401 9.29012 31.4501 9.00012 31.4301C7.64012 31.3601 6.28011 31.4501 4.9201 31.3701C4.4601 31.3401 3.9101 31.0801 3.6001 30.7501C3.4601 30.6001 3.73009 29.9301 3.97009 29.6101C5.50009 27.5701 7.08014 25.5601 8.71014 23.4401C6.93014 22.6001 5.3101 21.6001 3.5401 21.1101C2.4701 20.8101 1.18012 21.3201 0.120117 21.4401C1.72012 17.3201 5.8801 12.3801 10.6601 12.3801C13.2601 12.3801 15.3201 13.2201 16.3201 15.8001C16.6301 16.5901 17.0701 16.5501 17.6801 16.2101C18.6801 15.6501 19.1001 14.3801 18.4001 13.2801C17.8501 12.4201 17.0102 11.7501 16.2802 11.0101C14.8402 9.56008 13.2301 8.23008 11.9801 6.63008C10.7801 5.10008 11.0901 3.17008 12.3301 1.82008C13.8101 0.22008 15.9001 0.500058 16.9701 2.36006C17.3301 2.98006 17.9801 3.42007 18.4301 4.00007C19.4301 5.29007 19.3101 6.43008 18.0401 7.48008C17.8001 6.99008 17.6001 6.50008 17.3501 6.04008C16.9101 5.24008 16.4402 4.56007 15.2802 4.75007C14.7902 4.83007 14.2301 4.39007 13.5801 4.15007L13.5901 4.17009ZM9.6701 24.3601C7.88011 26.3501 6.31015 28.0901 4.78015 29.8601C4.66015 30.0001 4.86011 30.6601 4.9201 30.6601C6.5201 30.7101 8.13011 30.7001 9.6701 30.7001V24.3601Z"
    fill="white"
  />
</svg>
