<svg viewBox="0 0 84 82" fill="none" xmlns="http://www.w3.org/2000/svg">
  <path
    d="M20.64 50.69C20.31 50.69 20.05 50.43 20.05 50.1V46.96C20.05 46.63 20.31 46.37 20.64 46.37C20.97 46.37 21.23 46.63 21.23 46.96V50.1C21.23 50.43 20.97 50.69 20.64 50.69Z"
    fill="white"
  />
  <path
    d="M33.1899 67.95C27.6699 67.95 22.47 67.12 18.55 65.61C14.45 64.03 12.2 61.87 12.2 59.51C12.2 55.53 18.72 52.64 27.7 52.64H37.12C37.66 52.64 38.1 52.2 38.1 51.66C38.1 51.12 37.66 50.68 37.12 50.68H34.77C33.58 50.68 32.61 49.71 32.61 48.52C32.61 47.33 33.58 46.36 34.77 46.36H42.62C46.8 46.36 50.79 47.03 53.86 48.24C57.12 49.53 58.91 51.3 58.91 53.22C58.91 55.35 56.3 56.95 52.83 56.95C52.5 56.95 52.24 56.69 52.24 56.36C52.24 56.03 52.5 55.77 52.83 55.77C55.53 55.77 57.73 54.63 57.73 53.22C57.73 51.81 56.16 50.41 53.42 49.33C50.54 48.19 46.6 47.53 42.62 47.53H34.77C34.23 47.53 33.79 47.97 33.79 48.51C33.79 49.05 34.23 49.49 34.77 49.49H37.12C38.31 49.49 39.28 50.46 39.28 51.65C39.28 52.84 38.31 53.81 37.12 53.81H27.7C23.63 53.81 19.91 54.44 17.24 55.58C14.75 56.64 13.38 58.03 13.38 59.5C13.38 61.31 15.42 63.13 18.98 64.5C22.77 65.96 27.82 66.76 33.2 66.76C38.58 66.76 43.8799 65.94 47.8199 64.5C51.6199 63.11 53.8 61.29 53.8 59.5C53.8 59.17 54.06 58.91 54.39 58.91C54.72 58.91 54.98 59.17 54.98 59.5C54.98 61.84 52.58 64.01 48.23 65.6C44.17 67.08 38.69 67.93 33.21 67.93L33.1899 67.95Z"
    fill="white"
  />
  <path
    d="M45.75 63.25H27.7C26.51 63.25 25.54 62.28 25.54 61.09C25.54 59.9 26.51 58.93 27.7 58.93H31.62C32.16 58.93 32.6 58.49 32.6 57.95C32.6 57.41 32.16 56.97 31.62 56.97H22.99C22.66 56.97 22.4 56.71 22.4 56.38C22.4 56.05 22.66 55.79 22.99 55.79H31.62C32.81 55.79 33.78 56.76 33.78 57.95C33.78 59.14 32.81 60.11 31.62 60.11H27.7C27.16 60.11 26.72 60.55 26.72 61.09C26.72 61.63 27.16 62.07 27.7 62.07H45.75C46.08 62.07 46.34 62.33 46.34 62.66C46.34 62.99 46.08 63.25 45.75 63.25Z"
    fill="white"
  />
  <path
    d="M32.4101 34.99C32.2301 34.99 32.0501 34.9 31.9301 34.74C31.7401 34.48 31.8 34.1101 32.07 33.9201L54.0401 18.22C54.2501 18.07 54.54 18.07 54.74 18.23L61.8001 23.72C62.0601 23.92 62.1001 24.29 61.9001 24.55C61.7001 24.81 61.33 24.85 61.07 24.65L54.35 19.43L32.73 34.87C32.63 34.94 32.5101 34.98 32.3901 34.98L32.4101 34.99Z"
    fill="white"
  />
  <path
    d="M29.27 29.5C29.08 29.5 28.89 29.41 28.78 29.24C28.6 28.97 28.6699 28.6001 28.9399 28.4201L38.36 22.1401C38.5499 22.0201 38.7799 22.01 38.9799 22.12L44.4699 25.26C44.7499 25.42 44.8499 25.78 44.6899 26.06C44.5299 26.34 44.17 26.44 43.89 26.28L38.7099 23.32L29.5999 29.4C29.4999 29.47 29.39 29.5 29.27 29.5Z"
    fill="white"
  />
  <path
    d="M28.4799 47.55H12.78C12.55 47.55 12.3399 47.41 12.2399 47.2C12.1499 46.99 12.1799 46.74 12.3399 46.57L15.66 42.84H14.3499C14.1199 42.84 13.9099 42.71 13.8199 42.5C13.7199 42.29 13.76 42.05 13.91 41.87L17.79 37.35H16.7199C16.4899 37.35 16.2799 37.22 16.1899 37.01C16.0899 36.8 16.12 36.56 16.27 36.38L20.1899 31.67C20.2999 31.54 20.47 31.46 20.64 31.46C20.81 31.46 20.9799 31.54 21.0899 31.67L25.01 36.38C25.16 36.56 25.1899 36.8 25.0899 37.01C24.9899 37.22 24.79 37.35 24.56 37.35H23.4899L27.3699 41.87C27.5199 42.04 27.5499 42.29 27.4599 42.5C27.3599 42.71 27.16 42.84 26.93 42.84H25.6199L28.9399 46.57C29.0899 46.74 29.13 46.99 29.04 47.2C28.95 47.41 28.7299 47.55 28.4999 47.55H28.4799ZM14.0999 46.37H27.17L23.8499 42.64C23.6999 42.47 23.6599 42.22 23.7499 42.01C23.8399 41.8 24.06 41.66 24.29 41.66H25.63L21.7499 37.14C21.5999 36.97 21.57 36.72 21.66 36.51C21.76 36.3 21.9599 36.17 22.1899 36.17H23.29L20.6199 32.97L17.9499 36.17H19.05C19.28 36.17 19.4899 36.3 19.5799 36.51C19.6799 36.72 19.6399 36.96 19.4899 37.14L15.6099 41.66H16.9499C17.1799 41.66 17.3899 41.8 17.4899 42.01C17.5799 42.22 17.55 42.47 17.39 42.64L14.0699 46.37H14.0999Z"
    fill="white"
  />
  <path
    d="M30.84 38.92H28.22C27.89 38.92 27.6301 38.66 27.6301 38.33C27.6301 38 27.89 37.74 28.22 37.74H29.5601L25.6801 33.22C25.5301 33.05 25.5 32.8 25.59 32.59C25.69 32.38 25.89 32.25 26.12 32.25H27.22L24.61 29.11L23.48 30.81C23.3 31.08 22.9301 31.15 22.6601 30.97C22.3901 30.79 22.32 30.42 22.5 30.15L24.07 27.8C24.17 27.65 24.3401 27.55 24.5301 27.54C24.7201 27.54 24.8901 27.61 25.0101 27.75L28.9301 32.46C29.0801 32.64 29.1101 32.88 29.0101 33.09C28.9101 33.3 28.71 33.43 28.48 33.43H27.4101L31.2901 37.95C31.4401 38.12 31.4701 38.37 31.3801 38.58C31.2801 38.79 31.08 38.92 30.85 38.92H30.84Z"
    fill="white"
  />
  <path
    d="M43.39 42.06C43.06 42.06 42.8 41.8 42.8 41.47C42.8 41.14 43.06 40.88 43.39 40.88C45.51 40.88 46.73 39.49 46.73 39.11C46.73 38.78 46.9899 38.52 47.3199 38.52C47.6499 38.52 47.91 38.78 47.91 39.11C47.91 40.3 46.02 42.05 43.4 42.05L43.39 42.06Z"
    fill="white"
  />
  <path
    d="M51.24 42.06C48.62 42.06 46.73 40.3 46.73 39.12C46.73 38.79 46.9899 38.53 47.3199 38.53C47.6499 38.53 47.91 38.79 47.91 39.12C47.91 39.5 49.12 40.89 51.25 40.89C51.58 40.89 51.84 41.15 51.84 41.48C51.84 41.81 51.58 42.07 51.25 42.07L51.24 42.06Z"
    fill="white"
  />
  <path
    d="M44.1801 38.92C43.8501 38.92 43.59 38.66 43.59 38.33C43.59 38 43.8501 37.74 44.1801 37.74C46.3001 37.74 46.73 36.35 46.73 35.97C46.73 35.64 46.9899 35.38 47.3199 35.38C47.6499 35.38 47.91 35.64 47.91 35.97C47.91 37.19 46.7501 38.91 44.1801 38.91V38.92Z"
    fill="white"
  />
  <path
    d="M50.46 38.92C47.89 38.92 46.73 37.2 46.73 35.98C46.73 35.65 46.9899 35.39 47.3199 35.39C47.6499 35.39 47.91 35.65 47.91 35.98C47.91 36.35 48.34 37.75 50.46 37.75C50.79 37.75 51.05 38.01 51.05 38.34C51.05 38.67 50.79 38.93 50.46 38.93V38.92Z"
    fill="white"
  />
  <path
    d="M44.96 35.78C44.63 35.78 44.37 35.52 44.37 35.19C44.37 34.86 44.63 34.6 44.96 34.6C46.18 34.6 46.73 33.32 46.73 32.83C46.73 32.5 46.9899 32.24 47.3199 32.24C47.6499 32.24 47.91 32.5 47.91 32.83C47.91 33.89 46.93 35.77 44.97 35.77L44.96 35.78Z"
    fill="white"
  />
  <path
    d="M47.3199 43.63C46.9899 43.63 46.73 43.37 46.73 43.04V32.84C46.73 32.51 46.9899 32.25 47.3199 32.25C47.6499 32.25 47.91 32.51 47.91 32.84C47.91 33.33 48.4501 34.61 49.6801 34.61C50.0101 34.61 50.27 34.87 50.27 35.2C50.27 35.53 50.0101 35.79 49.6801 35.79C48.9601 35.79 48.37 35.53 47.91 35.16V43.05C47.91 43.38 47.6499 43.64 47.3199 43.64V43.63Z"
    fill="white"
  />
  <path
    d="M53.6 44.41C53.27 44.41 53.01 44.15 53.01 43.82C53.01 43.49 53.27 43.23 53.6 43.23C55.72 43.23 56.9399 41.84 56.9399 41.46C56.9399 41.13 57.2 40.87 57.53 40.87C57.86 40.87 58.12 41.13 58.12 41.46C58.12 42.65 56.23 44.4 53.61 44.4L53.6 44.41Z"
    fill="white"
  />
  <path
    d="M61.4399 44.41C58.8199 44.41 56.9301 42.65 56.9301 41.47C56.9301 41.14 57.19 40.88 57.52 40.88C57.85 40.88 58.11 41.14 58.11 41.47C58.11 41.85 59.32 43.24 61.45 43.24C61.78 43.24 62.04 43.5 62.04 43.83C62.04 44.16 61.78 44.42 61.45 44.42L61.4399 44.41Z"
    fill="white"
  />
  <path
    d="M54.38 41.27C54.05 41.27 53.79 41.01 53.79 40.68C53.79 40.35 54.05 40.09 54.38 40.09C56.5 40.09 56.9301 38.7 56.9301 38.32C56.9301 37.99 57.19 37.73 57.52 37.73C57.85 37.73 58.11 37.99 58.11 38.32C58.11 39.54 56.95 41.26 54.38 41.26V41.27Z"
    fill="white"
  />
  <path
    d="M60.66 41.27C58.09 41.27 56.9301 39.55 56.9301 38.33C56.9301 38 57.19 37.74 57.52 37.74C57.85 37.74 58.11 38 58.11 38.33C58.11 38.7 58.54 40.1 60.66 40.1C60.99 40.1 61.25 40.36 61.25 40.69C61.25 41.02 60.99 41.28 60.66 41.28V41.27Z"
    fill="white"
  />
  <path
    d="M55.17 38.13C54.84 38.13 54.58 37.87 54.58 37.54C54.58 37.21 54.84 36.95 55.17 36.95C56.39 36.95 56.9399 35.67 56.9399 35.18C56.9399 34.85 57.2 34.59 57.53 34.59C57.86 34.59 58.12 34.85 58.12 35.18C58.12 36.24 57.1401 38.12 55.1801 38.12L55.17 38.13Z"
    fill="white"
  />
  <path
    d="M57.52 45.98C57.19 45.98 56.9301 45.72 56.9301 45.39V35.19C56.9301 34.86 57.19 34.6 57.52 34.6C57.85 34.6 58.11 34.86 58.11 35.19C58.11 35.68 58.65 36.96 59.88 36.96C60.21 36.96 60.47 37.22 60.47 37.55C60.47 37.88 60.21 38.14 59.88 38.14C59.16 38.14 58.57 37.88 58.11 37.51V45.4C58.11 45.73 57.85 45.99 57.52 45.99V45.98Z"
    fill="white"
  />
  <mask
    id="mask0_88_37506"
    style="mask-type: luminance"
    maskUnits="userSpaceOnUse"
    x="11"
    y="0"
    width="73"
    height="73"
  >
    <path d="M83.34 0.47998H11.61V72.21H83.34V0.47998Z" fill="white" />
  </mask>
  <g mask="url(#mask0_88_37506)">
    <path
      opacity="0.4"
      d="M83.33 36.34C83.33 56.15 67.27 72.2 47.47 72.2C27.67 72.2 11.61 56.14 11.61 36.34C11.61 16.54 27.67 0.47998 47.47 0.47998C67.27 0.47998 83.33 16.54 83.33 36.34Z"
      fill="white"
    />
  </g>
  <path
    d="M35.78 81.88L34.59 81.78L34.73 79.39L37.12 79.56L36.98 81.95L35.79 81.88H35.78ZM41.67 79.42L44.03 79.11L44.3199 81.47L41.96 81.78L41.67 79.42ZM28.5 80.68L27.33 80.39L27.95 78.08L30.24 78.68L29.64 80.99L28.49 80.68H28.5ZM48.48 78.1L50.72 77.36L51.48 79.63L49.21 80.37L48.47 78.1H48.48ZM21.58 78.13L20.51 77.63L21.54 75.48L23.6899 76.51L22.66 78.66L21.59 78.13H21.58ZM54.87 75.53L56.95 74.36L58.14 76.44L56.0601 77.61L54.87 75.53ZM15.25 74.31L14.3199 73.59L15.73 71.68L17.64 73.09L16.23 75.02L15.25 74.31ZM60.6899 71.76L62.5 70.21L64.05 72.02L63.14 72.79V72.81L62.23 73.57L60.6801 71.76H60.6899Z"
    fill="white"
  />
  <path
    d="M74.01 48.08L74.25 45.69L76.61 45.93L76.51 47.12V47.1L76.39 48.29L74 48.07L74.01 48.08ZM74.11 39.97L73.99 38.78L76.38 38.57L76.6 40.93L74.24 41.17L74.12 39.98L74.11 39.97ZM72.77 33.19L72.4399 32.04L74.73 31.35L75.0699 32.5L75.4 33.64L73.13 34.33L72.77 33.19ZM70.17 26.79L69.62 25.72L71.72 24.62L72.27 25.67L72.84 26.72L70.72 27.84L70.17 26.79ZM66.38 20.99L65.64 20.06L67.5 18.58L68.98 20.44L67.12 21.92L66.38 20.99ZM61.5601 16.05V16.03L60.65 15.27L62.1801 13.46L63.09 14.22L64.02 14.98L62.47 16.82L61.5601 16.05ZM55.88 12.09L54.83 11.52L56 9.42004L57.05 10.02L58.08 10.59L56.91 12.67L55.88 12.1V12.09ZM49.53 9.30002L48.41 8.94003L49.15 6.67004L51.42 7.41003L50.6801 9.68002L49.53 9.30002Z"
    fill="white"
  />
  <path
    d="M0.170044 47.13L0.0500488 45.94L2.43994 45.73L2.66003 48.09L0.27002 48.3L0.170044 47.13ZM0.0699463 40.92L0.310059 38.56L2.67004 38.8L2.43005 41.16L0.0699463 40.92ZM1.26001 33.64L1.94995 31.35L4.21997 32.04L3.55005 34.33L1.26001 33.64ZM3.83997 26.72L4.93994 24.62L7.06006 25.72L6.51001 26.79H6.48999L5.93994 27.84L3.83997 26.72ZM7.68005 20.44L8.43994 19.51L9.18005 18.58L11.04 20.06L10.3 20.99L9.54004 21.92L7.68005 20.44ZM12.67 15L14.48 13.45L16.03 15.26L14.22 16.81L12.67 15ZM18.59 10.58L20.67 9.41003L21.84 11.51L20.8199 12.08L19.77 12.68L18.6 10.58H18.59ZM25.25 7.41003L26.4 7.03003L27.52 6.67004L28.28 8.94003L27.13 9.30002L26.01 9.68002L25.25 7.41003Z"
    fill="white"
  />
</svg>
