<svg viewBox="0 0 136 103" fill="none" xmlns="http://www.w3.org/2000/svg">
  <g opacity="0.3">
    <path
      d="M71.6998 -0.0100403C36.2898 -0.0100403 7.47986 19.53 7.47986 43.46C7.47986 58.11 17.9799 70.81 34.0999 78.87C32.3899 83.02 27.9998 92.06 19.6898 97.43C19.6898 97.43 39.7099 102.56 55.0999 85.46C60.4699 86.44 65.8398 86.92 71.6998 86.92C107.11 86.92 135.92 67.39 135.92 43.46C135.92 19.53 107.11 -0.0100403 71.6998 -0.0100403Z"
      fill="white"
    />
  </g>
  <g fill-opacity="0">
    <path
      d="M65.0798 4.00998C29.6698 4.00998 0.859863 23.55 0.859863 47.48C0.859863 62.13 11.3599 74.83 27.4799 82.89C25.7699 87.04 21.3798 96.08 13.0698 101.45C13.0698 101.45 33.0899 106.58 48.4799 89.48C53.8499 90.46 59.2198 90.94 65.0798 90.94C100.49 90.94 129.3 71.41 129.3 47.48C129.3 23.55 100.49 4.00998 65.0798 4.00998Z"
      stroke="white"
      fill="#FFFFFF"
      stroke-miterlimit="10"
    />
  </g>
</svg>
