<svg  viewBox="0 0 494 117" fill="none" xmlns="http://www.w3.org/2000/svg">
<path d="M57.6602 0.839966V11.55C31.9702 11.55 11.0801 32.45 11.0801 58.13C11.0801 83.81 31.9802 104.71 57.6602 104.71V115.42C26.0702 115.42 0.370117 89.72 0.370117 58.13C0.370117 26.54 26.0702 0.839966 57.6602 0.839966Z" fill="#CD5557"/>
<path d="M435.77 1.77002V12.48C461.46 12.48 482.35 33.38 482.35 59.06C482.35 84.74 461.45 105.64 435.77 105.64V116.35C467.36 116.35 493.06 90.65 493.06 59.06C493.06 27.47 467.36 1.77002 435.77 1.77002Z" fill="#CD5557"/>
<path d="M318.23 106.78H290.72V115.57H318.23V106.78Z" fill="#CD5557"/>
<path d="M202.43 106.83H174.92V115.62H202.43V106.83Z" fill="#CD5557"/>
</svg>
