<svg viewBox="0 0 68 49" fill="none" xmlns="http://www.w3.org/2000/svg">
<path d="M34.01 15.32C35.9264 15.32 37.48 13.7664 37.48 11.85C37.48 9.93358 35.9264 8.38 34.01 8.38C32.0936 8.38 30.54 9.93358 30.54 11.85C30.54 13.7664 32.0936 15.32 34.01 15.32Z" fill="#CD5557"/>
<path d="M34.01 0.220001C27.26 0.220001 21.78 5.71 21.78 12.45C21.78 17.18 27.85 27.09 31.6 32.78C31.91 33.25 32.2 33.69 32.48 34.1C33.13 35.06 33.66 35.83 34.01 36.33C34.37 35.82 34.9 35.05 35.54 34.1C35.81 33.69 36.11 33.25 36.42 32.78C40.18 27.1 46.24 17.18 46.24 12.45C46.24 5.7 40.75 0.220001 34.01 0.220001ZM34.01 18.8C30.17 18.8 27.06 15.69 27.06 11.85C27.06 8.01 30.17 4.9 34.01 4.9C37.85 4.9 40.96 8.01 40.96 11.85C40.96 15.69 37.85 18.8 34.01 18.8Z" fill="#CD5557"/>
<path d="M37.81 32.89C37.51 33.34 37.23 33.77 36.96 34.18C38.91 34.33 40.7 34.63 42.15 35.07C44.2 35.68 45.11 36.42 45.11 36.89C45.11 37.36 44.19 38.11 42.15 38.71C39.99 39.35 37.1 39.71 34.01 39.71C30.92 39.71 28.04 39.36 25.87 38.71C23.82 38.1 22.91 37.36 22.91 36.89C22.91 36.42 23.83 35.67 25.87 35.07C27.33 34.64 29.11 34.34 31.06 34.18C30.79 33.78 30.5 33.35 30.21 32.89C25.49 33.36 21.55 34.71 21.55 36.89C21.55 39.63 27.82 41.07 34.01 41.07C40.2 41.07 46.47 39.63 46.47 36.89C46.47 34.71 42.53 33.36 37.81 32.89Z" fill="#B2F2ED"/>
<g opacity="0.7">
<path d="M40.21 30.18C39.72 30.92 39.26 31.62 38.82 32.28C42.01 32.53 44.92 33.02 47.3 33.72C50.64 34.71 52.14 35.93 52.14 36.7C52.14 37.47 50.64 38.68 47.3 39.67C43.77 40.72 39.05 41.3 34.02 41.3C28.99 41.3 24.27 40.72 20.74 39.67C17.4 38.68 15.9 37.46 15.9 36.7C15.9 35.94 17.4 34.72 20.74 33.72C23.12 33.01 26.03 32.52 29.22 32.28C28.78 31.62 28.31 30.92 27.83 30.18C20.13 30.94 13.69 33.15 13.69 36.7C13.69 41.18 23.92 43.52 34.03 43.52C44.14 43.52 54.37 41.18 54.37 36.7C54.37 33.15 47.93 30.94 40.23 30.18H40.21Z" fill="#B2F2ED"/>
</g>
<g opacity="0.3">
<path d="M44.31 25.99C43.5 27.22 42.73 28.39 41.99 29.48C47.29 29.89 52.13 30.71 56.08 31.88C61.63 33.53 64.12 35.55 64.12 36.83C64.12 38.11 61.63 40.13 56.08 41.77C50.21 43.51 42.37 44.47 34.01 44.47C25.65 44.47 17.81 43.51 11.94 41.77C6.39 40.12 3.89999 38.1 3.89999 36.83C3.89999 35.56 6.39 33.53 11.94 31.88C15.89 30.71 20.74 29.89 26.03 29.48C25.3 28.38 24.52 27.22 23.71 25.99C10.9 27.26 0.209991 30.93 0.209991 36.83C0.209991 44.27 17.22 48.17 34.01 48.17C50.8 48.17 67.81 44.28 67.81 36.83C67.81 30.93 57.11 27.26 44.31 25.99Z" fill="#B2F2ED"/>
</g>
</svg>
