<svg viewBox="0 0 92 65" fill="none" xmlns="http://www.w3.org/2000/svg">
<path d="M45.7801 0.330078C36.7201 0.330078 29.35 7.70007 29.35 16.7601C29.35 23.1101 37.5 36.4301 42.54 44.0601C42.96 44.6901 43.35 45.2801 43.72 45.8301C44.59 47.1201 45.3001 48.1501 45.7801 48.8301C46.2601 48.1501 46.9701 47.1201 47.8401 45.8301C48.2101 45.2801 48.6001 44.6901 49.0201 44.0601C54.0701 36.4301 62.2101 23.1101 62.2101 16.7601C62.2101 7.70007 54.8401 0.330078 45.7801 0.330078ZM45.7801 25.2801C40.6301 25.2801 36.4501 21.1001 36.4501 15.9501C36.4501 10.8001 40.6301 6.62006 45.7801 6.62006C50.9301 6.62006 55.11 10.8001 55.11 15.9501C55.11 21.1001 50.9301 25.2801 45.7801 25.2801Z" fill="#CD5557"/>
<path d="M50.8701 44.22C50.4701 44.83 50.09 45.41 49.72 45.95C52.34 46.15 54.7401 46.56 56.7001 47.14C59.4501 47.96 60.6801 48.96 60.6801 49.59C60.6801 50.22 59.4501 51.22 56.7001 52.04C53.7901 52.9 49.9101 53.38 45.7701 53.38C41.6301 53.38 37.7501 52.9 34.8401 52.04C32.0901 51.22 30.86 50.22 30.86 49.59C30.86 48.96 32.0901 47.96 34.8401 47.14C36.8001 46.56 39.2001 46.15 41.8201 45.95C41.4601 45.41 41.07 44.83 40.67 44.22C34.33 44.85 29.0301 46.67 29.0301 49.59C29.0301 53.28 37.4501 55.2 45.7701 55.2C54.0901 55.2 62.5101 53.27 62.5101 49.59C62.5101 46.67 57.2101 44.85 50.8701 44.22Z" fill="#B2F2ED"/>
<g opacity="0.7">
<path d="M54.1 40.75C53.45 41.74 52.82 42.69 52.23 43.57C56.51 43.9 60.4201 44.56 63.6201 45.51C68.1101 46.84 70.1201 48.48 70.1201 49.51C70.1201 50.54 68.1101 52.17 63.6201 53.51C58.8801 54.92 52.5401 55.7 45.7801 55.7C39.0201 55.7 32.6901 54.92 27.9401 53.51C23.4501 52.18 21.4401 50.54 21.4401 49.51C21.4401 48.48 23.4501 46.85 27.9401 45.51C31.1301 44.56 35.0501 43.9 39.3301 43.57C38.7401 42.68 38.1101 41.74 37.4601 40.75C27.1101 41.77 18.47 44.74 18.47 49.51C18.47 55.52 32.2101 58.67 45.7801 58.67C59.3501 58.67 73.0901 55.52 73.0901 49.51C73.0901 44.74 64.45 41.77 54.1 40.75Z" fill="#B2F2ED"/>
</g>
<g opacity="0.3">
<path d="M59.61 35.1201C58.53 36.7701 57.4901 38.3401 56.5001 39.8101C63.6101 40.3601 70.1201 41.4602 75.4301 43.0302C82.8901 45.2402 86.23 47.9601 86.23 49.6701C86.23 51.3801 82.8901 54.1001 75.4301 56.3101C67.5401 58.6501 57.0201 59.9401 45.7801 59.9401C34.5401 59.9401 24.0201 58.6501 16.1301 56.3101C8.67007 54.1001 5.33008 51.3801 5.33008 49.6701C5.33008 47.9601 8.67007 45.2402 16.1301 43.0302C21.4401 41.4502 27.9401 40.3501 35.0601 39.8101C34.0701 38.3401 33.0301 36.7701 31.9501 35.1201C14.7501 36.8201 0.380066 41.7501 0.380066 49.6801C0.380066 59.6801 23.2201 64.9101 45.7801 64.9101C68.3401 64.9101 91.1801 59.6801 91.1801 49.6801C91.1801 41.7501 76.81 36.8201 59.61 35.1201Z" fill="#B2F2ED"/>
</g>
</svg>
