<svg viewBox="0 0 68 49" fill="none" xmlns="http://www.w3.org/2000/svg">
  <path
    d="M34.01 15.32C35.9264 15.32 37.48 13.7664 37.48 11.85C37.48 9.93358 35.9264 8.38 34.01 8.38C32.0936 8.38 30.54 9.93358 30.54 11.85C30.54 13.7664 32.0936 15.32 34.01 15.32Z"
    fill="#CD5557"
  />
  <path
    d="M34.01 0.220001C27.26 0.220001 21.78 5.71 21.78 12.45C21.78 17.18 27.85 27.09 31.6 32.78C31.91 33.25 32.2 33.69 32.48 34.1C33.13 35.06 33.66 35.83 34.01 36.33C34.37 35.82 34.9 35.05 35.54 34.1C35.81 33.69 36.11 33.25 36.42 32.78C40.18 27.1 46.24 17.18 46.24 12.45C46.24 5.7 40.75 0.220001 34.01 0.220001ZM34.01 18.8C30.17 18.8 27.06 15.69 27.06 11.85C27.06 8.01 30.17 4.9 34.01 4.9C37.85 4.9 40.96 8.01 40.96 11.85C40.96 15.69 37.85 18.8 34.01 18.8Z"
    fill="#CD5557"
  />
</svg>
