<svg viewBox="0 0 40 46" fill="none" xmlns="http://www.w3.org/2000/svg">
  <path
    fill-rule="evenodd"
    clip-rule="evenodd"
    d="M12.45 27.67C11.98 26.64 11.62 25.48 11.46 24.16C11.38 23.48 11.34 22.74 11.37 22.03C11.46 19.89 12.0401 18.18 12.8101 16.72C13.3201 15.74 13.9501 14.87 14.6801 14.09C16.1201 12.54 17.91 11.32 20.21 10.62C21.6 10.2 23.2901 9.98002 24.9301 10.13C26.9401 10.32 28.56 10.9 29.98 11.69C30.78 12.13 31.5101 12.68 32.1701 13.28C32.8401 13.89 33.43 14.55 33.96 15.28C35.01 16.73 35.82 18.49 36.15 20.66C36.32 21.75 36.34 23.07 36.19 24.2C36.04 25.31 35.7601 26.3 35.4101 27.21C34.7101 28.99 33.62 30.5 32.33 31.7C30.66 33.24 28.66 34.37 26.02 34.86C24.92 35.06 23.76 35.09 22.65 34.99C20.94 34.84 19.48 34.34 18.23 33.72C17.38 33.3 16.6401 32.8 15.9301 32.23C15.2601 32.89 14.6 33.56 13.94 34.22C14.23 34.46 14.4 34.92 14.27 35.36C14.16 35.74 13.82 35.99 13.58 36.23C10.71 39.1 7.86001 41.96 4.99001 44.82C4.73001 45.08 4.49 45.38 4.04 45.44C3.8 45.47 3.57999 45.41 3.40999 45.33C3.22999 45.24 3.11 45.11 2.98 44.98C2.44 44.44 1.96 43.96 1.42 43.42C1.29 43.29 1.15003 43.17 1.07003 43C0.980026 42.83 0.92999 42.59 0.96999 42.34C1.02999 41.9 1.33005 41.67 1.59005 41.4C4.46005 38.53 7.32007 35.68 10.1801 32.81C10.4201 32.57 10.6701 32.23 11.0601 32.12C11.5001 32 11.93 32.17 12.19 32.45C12.77 31.87 13.3601 31.28 13.9301 30.7C14.0101 30.62 14.1001 30.55 14.1701 30.45C13.4901 29.63 12.92 28.71 12.45 27.67ZM24.1701 12.63C22.5801 12.56 21.13 12.92 19.99 13.39C18.8 13.88 17.85 14.57 16.98 15.36C16.77 15.55 16.57 15.78 16.37 16C15.79 16.66 15.28 17.39 14.88 18.24C14.36 19.35 13.93 20.7 13.9 22.23C13.85 24.71 14.5601 26.55 15.5401 28.04C15.8701 28.54 16.23 29.01 16.64 29.42C17.47 30.25 18.38 30.97 19.53 31.51C20.62 32.02 21.97 32.46 23.51 32.49C25.93 32.54 27.7801 31.83 29.2901 30.86C30.3001 30.22 31.14 29.38 31.84 28.43C32.19 27.96 32.51 27.45 32.78 26.89C33.31 25.76 33.71 24.47 33.76 22.9C33.82 21.27 33.47 19.86 32.99 18.7C32.5 17.51 31.83 16.55 31.02 15.7C30.61 15.27 30.17 14.89 29.7 14.53C29.23 14.17 28.7 13.88 28.14 13.6C27.03 13.04 25.7201 12.7 24.1601 12.62L24.1701 12.63ZM24.02 13.83C23.18 13.8 22.25 13.93 21.53 14.13C20.99 14.28 20.46 14.48 19.98 14.72C19.8 14.81 19.5501 14.9 19.4301 15.06C19.1901 15.4 19.48 15.92 19.94 15.83C20.04 15.81 20.12 15.75 20.22 15.7C21.03 15.28 21.9201 14.98 23.0401 14.85C24.7901 14.66 26.44 15.12 27.62 15.78C28.22 16.12 28.77 16.51 29.25 16.99C29.35 17.09 29.43 17.18 29.59 17.2C29.99 17.26 30.29 16.86 30.11 16.5C30.05 16.39 29.95 16.31 29.85 16.21C29.39 15.75 28.8601 15.37 28.2901 15.03C27.5801 14.61 26.85 14.3 25.96 14.07C25.37 13.92 24.7301 13.85 24.0401 13.82L24.02 13.83Z"
    fill="white"
  />
  <path
    d="M28.29 3.40004C28.37 2.42004 29.56 2.22003 29.56 3.45003C29.56 4.87003 29.3999 6.02004 29.2499 6.77004C29.1099 7.51004 28.54 7.53001 28.42 6.87002C28.3 6.21002 28.2 4.49004 28.28 3.40004H28.29Z"
    fill="white"
  />
  <path
    d="M32.15 7.21995C32.34 6.67995 33.37 4.76 33.66 4.21C34.12 3.33 34.9999 1.89997 35.5999 1.17997C36.1999 0.459967 36.97 0.719994 36.77 1.51999C36.58 2.28999 35.9699 3.30999 35.2499 4.38999C34.5199 5.45999 33.2299 7.27995 32.7199 7.78995C32.3899 8.11995 31.93 7.85995 32.15 7.21995Z"
    fill="white"
  />
  <path
    d="M35.12 9.15002C35.5 8.68002 37.25 7.08999 37.82 6.73999C38.98 5.99999 39.7201 6.90002 39.0401 7.58002C38.1501 8.47002 36.56 9.47001 35.82 9.82001C35.08 10.17 34.52 9.88997 35.12 9.15997V9.15002Z"
    fill="white"
  />
</svg>
