<svg viewBox="0 0 89 89" fill="none" xmlns="http://www.w3.org/2000/svg">
  <path
    d="M51.13 41.78C52.9029 41.78 54.34 40.3428 54.34 38.57C54.34 36.7971 52.9029 35.36 51.13 35.36C49.3572 35.36 47.92 36.7971 47.92 38.57C47.92 40.3428 49.3572 41.78 51.13 41.78Z"
    fill="currentColor"
  />
  <path
    d="M41.04 43.23C43.205 43.23 44.96 41.4749 44.96 39.31C44.96 37.145 43.205 35.39 41.04 35.39C38.8751 35.39 37.12 37.145 37.12 39.31C37.12 41.4749 38.8751 43.23 41.04 43.23Z"
    fill="currentColor"
  />
  <path
    d="M43.84 43.35C43.04 43.9 42.08 44.23 41.04 44.23C40 44.23 39.03 43.9 38.24 43.35C35.58 44.34 33.58 46.69 33.1 49.56C32.98 50.28 33.48 50.97 34.21 51.07C38.74 51.73 43.34 51.73 47.88 51.07C48.61 50.96 49.11 50.28 48.99 49.56C48.51 46.69 46.51 44.34 43.85 43.35H43.84Z"
    fill="currentColor"
  />
  <path
    d="M57.62 46.96C57.24 44.69 55.69 42.81 53.62 41.96C52.92 42.48 52.06 42.78 51.13 42.78C50.2 42.78 49.33 42.47 48.64 41.96C47.76 42.32 46.97 42.87 46.33 43.56C48.02 44.78 49.26 46.55 49.8 48.59C52.12 48.67 54.44 48.54 56.73 48.21C57.32 48.12 57.73 47.57 57.63 46.97L57.62 46.96Z"
    fill="currentColor"
  />
</svg>
