<svg viewBox="0 0 27 44" fill="none" xmlns="http://www.w3.org/2000/svg">
<path d="M26.2001 42.54C26.1301 42.28 26.0301 42.02 25.9001 41.78C25.6701 41.38 25.5001 40.94 25.2801 40.53C25.1501 40.29 25.04 40.04 24.99 39.77C24.93 39.46 24.84 39.17 24.72 38.88C24.56 38.61 24.5001 38.3 24.3301 38.04C23.9201 37.41 23.62 36.72 23.3 36.05C23.26 35.96 23.2101 35.88 23.1501 35.82C22.9201 34.78 22.78 32.8 22.74 32.22C22.74 32.22 22.74 32.22 22.74 32.21C22.75 32.16 22.74 32.11 22.73 32.06C22.64 31.81 22.68 31.56 22.73 31.3C22.78 31.04 22.84 30.76 22.67 30.51C22.52 30.16 22.55 29.75 22.35 29.41C22.3 28.78 22.2801 28.39 22.2701 28.16C22.2801 28.05 22.2801 27.93 22.2701 27.81C22.2101 27.49 22.21 27.16 22.11 26.85C22.01 26.54 21.9 26.23 21.81 25.93C21.72 25.63 21.5901 25.33 21.6901 24.98C21.7701 24.71 21.7301 24.42 21.5301 24.18C21.6001 21.9 19.73 19.79 19.73 19.79C19.71 19.73 19.65 19.69 19.61 19.64C19.38 19.45 19.18 19.25 18.98 19.04C18.36 18.39 17.62 17.86 16.99 17.22C16.74 16.97 16.48 16.72 16.23 16.48C15.96 16.18 15.67 15.91 15.43 15.59C15.42 15.51 15.3801 15.45 15.3301 15.39C15.0601 15.07 14.91 14.68 14.8 14.29C14.65 13.76 14.65 13.21 14.68 12.67C14.7 12.41 14.6201 12.11 14.8401 11.89C14.9301 11.75 15.07 11.75 15.22 11.76C15.68 11.79 16.1301 11.72 16.5701 11.58C16.7301 11.53 16.88 11.47 17.06 11.57C17.15 11.62 17.2801 11.6 17.3801 11.54C17.5801 11.54 17.79 11.54 17.91 11.32C17.93 11.31 17.9401 11.29 17.9601 11.28C18.0901 11.26 18.24 11.32 18.36 11.24C18.36 11.24 18.4201 11.24 18.4501 11.24C18.6301 11.22 18.81 11.29 18.99 11.2C19.1 11.19 19.21 11.23 19.31 11.16C19.38 11.14 19.4501 11.13 19.5301 11.11C19.7401 11.14 19.82 10.97 19.93 10.84C20 10.84 20.07 10.8 20.1 10.75C20.3 10.41 20.5901 10.12 20.7001 9.72999C20.7301 9.59999 20.71 9.5 20.6 9.42C20.49 9.26 20.37 9.1 20.43 8.89C20.51 8.63 20.4601 8.4 20.3301 8.17C20.3301 8.07 20.2901 7.96998 20.3301 7.86998C20.3601 7.76998 20.3101 7.65998 20.2001 7.64998C19.9301 7.64998 19.6401 7.55997 19.4001 7.76997C19.2801 7.83997 19.1901 7.76998 19.0901 7.71998C19.0501 7.63998 18.98 7.59997 18.91 7.54997C18.95 7.46997 18.9801 7.38998 19.0201 7.30998C19.1201 7.14998 19.0601 7.06997 18.9001 7.01997C18.8401 6.99997 18.79 6.97998 18.73 6.96998C18.52 6.94998 18.3601 6.84998 18.2801 6.64998C18.2801 6.47998 18.23 6.31 18.37 6.17C18.49 6.04 18.44 5.91998 18.31 5.83998C18.13 5.71998 17.9301 5.60998 17.7501 5.49998C17.5901 5.21998 17.46 4.92999 17.22 4.69999C17.12 4.60999 17.0101 4.50999 17.0201 4.34999C17.0401 4.23999 16.99 4.15997 16.92 4.07997C16.77 3.91997 16.59 3.94999 16.41 3.94999C16.32 3.84999 16.22 3.74998 16.1 3.68998C16.04 3.60998 15.9601 3.65 15.8801 3.64C15.7701 3.64 15.66 3.61998 15.56 3.55998C15.35 3.47998 15.1501 3.48998 14.9401 3.55998C14.8501 3.57998 14.76 3.62998 14.66 3.55998C14.54 3.46998 14.4001 3.47998 14.2601 3.46998C13.7701 3.41998 13.29 3.61998 12.8 3.55998C12.68 3.46998 12.5501 3.39999 12.4001 3.37999C12.4001 3.21999 12.31 3.08997 12.22 2.95997C12.08 2.76997 12.05 2.54997 12.05 2.32997C12.05 2.11997 12.2801 2.10998 12.4001 1.99998C12.7201 1.81998 12.98 1.56997 13.16 1.23997C13.24 1.20997 13.2501 1.13998 13.2501 1.05998C13.3101 0.969979 13.3201 0.87999 13.2501 0.78999C13.2401 0.76999 13.2201 0.759972 13.2101 0.739972C13.0301 0.509972 12.8401 0.449978 12.6401 0.589978C12.4801 0.699978 12.3101 0.789984 12.1901 0.939984C12.1001 1.04998 12.0201 1.05999 11.8901 0.979993C11.5401 0.789993 11.1201 0.869971 10.8901 1.26997C10.8401 1.32997 10.7701 1.38997 10.7501 1.45997C10.6701 1.68997 10.4801 1.92999 10.7501 2.15999C10.8901 2.27999 10.85 2.39999 10.8 2.53999C10.75 2.67999 10.6301 2.70999 10.5001 2.69999C10.4001 2.68999 10.3001 2.66998 10.2001 2.64998C10.0601 2.52998 9.90005 2.51998 9.75005 2.61998C9.57005 2.72998 9.40003 2.82998 9.17003 2.74998C9.08003 2.71998 8.98008 2.76997 8.90008 2.82997C8.67008 2.95997 8.63005 3.20999 8.50005 3.40999C8.42005 3.42999 8.41004 3.51999 8.36004 3.56999C8.27004 3.65999 8.17008 3.73997 8.03008 3.70997C7.90008 3.67997 7.92006 3.54997 7.88006 3.45997C7.86006 3.39997 7.85007 3.32997 7.83007 3.26997C7.76007 3.03997 7.32006 2.74997 7.13006 2.85997C6.88006 2.99997 6.67003 2.99999 6.42003 2.87999C6.37003 2.85999 6.31005 2.84999 6.25005 2.84999C5.91005 2.83999 5.62002 2.96999 5.66002 3.25999C5.72002 3.73999 5.66006 4.23997 5.82006 4.70997C5.84006 4.88997 5.73008 5.05997 5.78008 5.23997C5.84008 5.45997 5.90004 5.68 5.99004 5.89C6.05004 6.04 6.06002 6.17998 5.97002 6.30998C5.84002 6.49998 5.85005 6.71997 5.87005 6.92997C5.89005 7.12997 5.92002 7.32997 5.97002 7.51997C6.03002 7.74997 5.95008 8.01997 6.15008 8.20997C6.29008 8.34997 6.42007 8.50998 6.58007 8.61998C6.67007 8.76998 6.75003 8.92999 6.85003 9.06999C7.00003 9.26999 7.09003 9.51998 7.29003 9.68998L7.33007 9.81999C7.33007 9.81999 7.24006 9.90997 7.20006 9.95997C7.02006 10.18 6.80007 10.13 6.58007 10.04C6.50007 10.01 6.43003 9.92998 6.35003 9.86998C6.24003 9.67998 6.06004 9.61997 5.86004 9.60997C5.83004 9.57997 5.80007 9.54997 5.77007 9.51997C5.56007 9.28997 5.51005 9.28998 5.37005 9.55998C5.35005 9.59998 5.33005 9.63997 5.31005 9.67997C5.24005 9.86997 5.48002 10.33 5.66002 10.3C5.80002 10.28 5.86005 10.35 5.94005 10.42C6.00005 10.48 6.05006 10.54 6.13006 10.56C6.49006 10.64 6.81008 10.83 7.15008 10.98C7.22008 11.02 7.24004 11.08 7.24004 11.16V11.13C7.24004 11.13 7.24004 11.15 7.24004 11.16C7.17004 11.21 7.07006 11.18 7.01006 11.25C6.72006 11.27 6.48005 11.44 6.19005 11.49C5.86005 11.55 5.51006 11.62 5.20006 11.77C5.20006 11.77 5.18004 11.77 5.18004 11.78C5.09004 11.8 4.98008 11.8 4.90008 11.84C4.38008 12.09 3.80006 12.18 3.26006 12.38C2.70006 12.58 2.12003 12.75 1.60003 13.06C1.25003 13.27 0.820061 13.36 0.510061 13.64C0.420061 13.72 0.240049 13.8 0.310049 13.94C0.390049 14.09 0.550034 13.98 0.670034 13.94C0.960034 13.84 1.25006 13.73 1.57006 13.74C1.60006 13.92 1.74003 13.87 1.85003 13.86C2.11003 13.83 2.33007 13.68 2.58007 13.61C3.25007 13.41 3.93003 13.22 4.60003 13.02C4.83003 12.99 5.05006 12.95 5.26006 12.85C5.52006 12.73 5.80007 12.71 6.08007 12.71C6.31007 12.71 6.54007 12.74 6.77007 12.68C7.18007 12.56 7.58003 12.52 7.98003 12.72C7.98003 12.72 7.98003 12.71 7.98003 12.7L7.97002 12.71C8.02002 12.77 8.07008 12.83 8.15008 12.84H8.16002C8.16002 12.84 8.16008 12.84 8.15008 12.84C8.24008 12.93 8.33003 13.01 8.42003 13.1C8.49003 13.24 8.52006 13.39 8.51006 13.55C8.51006 13.72 8.51006 13.89 8.51006 14.06C8.51006 14.3 8.59007 14.39 8.83007 14.38C8.95007 14.38 9.02007 14.43 9.08007 14.52C9.15007 14.64 9.20002 14.76 9.22002 14.89C9.25002 15.06 9.33005 15.2 9.50005 15.25C9.60005 15.28 9.64003 15.35 9.67003 15.44C9.81003 15.86 9.91003 16.29 9.79003 16.74C9.70003 17.07 9.65005 17.41 9.62005 17.75C9.58005 18.14 9.53003 18.52 9.48003 18.91C9.46003 19.11 9.43008 19.32 9.28008 19.46C9.12008 19.6 9.03007 19.77 8.96007 19.94C8.61007 20.57 8.17006 21.76 8.76006 23.18C8.76006 23.29 8.77008 23.39 8.78008 23.5C8.80008 23.79 8.79008 24.08 8.78008 24.37C8.78008 24.8 8.92004 25.23 9.11004 25.62C9.22004 25.86 9.43005 26.06 9.50005 26.31C9.63005 26.74 9.82007 27.15 9.89007 27.6C9.92007 27.83 10.0201 28.04 10.1401 28.24C10.2001 28.47 10.2901 28.69 10.4001 28.9C10.4001 29.05 10.4001 29.19 10.4001 29.34C10.7901 30.16 10.82 31.03 10.86 31.93C9.52004 32.22 8.31008 32.48 7.09008 32.75C7.11008 32.84 7.13002 32.92 7.16002 33.01H9.64007V33.84C10.4301 33.5 11.18 33.18 11.93 32.85C11.83 32.42 11.8301 32.02 11.9001 31.68C11.9401 31.69 11.9801 31.7 12.0301 31.71C12.0701 31.71 12.1201 31.73 12.1501 31.76C12.2701 31.86 12.4 31.86 12.54 31.86C12.87 31.87 13.2001 31.81 13.5301 31.91C13.7301 32.04 13.9 32.19 14.06 32.37C14.14 32.46 14.25 32.53 14.35 32.6C14.57 32.77 14.8001 32.91 15.0101 33.12C15.0101 33.12 15.7301 33.99 16.3301 34.6C16.3301 34.65 16.3301 34.7 16.3301 34.76C16.3201 35.04 16.39 35.34 16.22 35.6C16.17 35.68 16.2101 35.75 16.2701 35.8C16.4701 35.96 16.4401 36.16 16.3801 36.36C16.3101 36.58 16.23 36.8 16.23 37.05C16.23 37.56 16.27 38.08 16.23 38.59C16.23 38.59 15.93 39.61 16.31 41.29C16.38 41.58 16.46 41.72 16.56 41.73C16.59 41.8 16.6201 41.86 16.6501 41.93C16.7501 42.15 16.96 42.21 17.17 42.1C17.17 42.1 17.2701 42.06 17.4601 42.03C17.5101 42.03 17.56 42.05 17.62 42.07C17.76 42.14 17.87 42.11 17.97 42.01C18.06 42.01 18.1601 42.03 18.2701 42.04C18.3501 42.08 18.4301 42.12 18.5301 42.11C18.5501 42.11 18.5701 42.11 18.5901 42.11C18.8801 42.18 19.2201 42.3 19.5901 42.48C19.7001 42.7 19.83 42.89 20.12 42.83C20.32 42.79 20.5101 42.78 20.7101 42.78C20.8101 42.78 20.9101 42.74 20.9401 42.61C21.2501 42.34 21.61 42.34 21.91 42.61C22.01 42.81 22.1901 42.87 22.3801 42.81C22.5201 42.77 22.66 42.75 22.8 42.79C22.97 42.94 23.1801 42.91 23.3801 42.93C23.6601 43.23 23.9101 43.27 24.1401 43.05C24.6901 42.96 24.8201 42.13 24.8201 42.13C24.9201 42.1 24.9801 42.13 25.0301 42.18C25.0301 42.18 25.03 42.23 25.04 42.32C25.07 42.54 25.15 42.95 25.35 43.05C25.39 43.08 25.4501 43.1 25.5201 43.1C25.7101 43.21 25.91 43.25 26.1 43.1C26.1 43.1 26.1301 43.07 26.1501 43.06C26.3301 42.91 26.2501 42.72 26.2101 42.56L26.2001 42.54ZM19.5801 9.92997C19.5801 9.92997 19.5801 9.92997 19.5701 9.92997H19.5801ZM18.8801 9.30998C18.8801 9.30998 18.86 9.30998 18.85 9.30998C18.85 9.30998 18.8701 9.30998 18.8801 9.30998ZM17.97 9.93998C17.97 9.93998 17.97 9.94997 17.97 9.95997C17.97 9.95997 17.9501 9.94998 17.9401 9.93998H17.9601H17.97ZM17.8201 5.62999C17.8201 5.62999 17.81 5.62999 17.8 5.62999C17.8 5.62999 17.8101 5.62999 17.8201 5.62999ZM16.9401 4.50999C16.9401 4.50999 16.9401 4.50997 16.9401 4.51997C16.9401 4.51997 16.9401 4.52999 16.9401 4.53999C16.9401 4.53999 16.9401 4.51999 16.9401 4.50999ZM16.8801 4.12999H16.86C16.86 4.12999 16.8601 4.11997 16.8801 4.10997V4.12999ZM16.5101 8.20997C16.5101 8.20997 16.5101 8.20997 16.5001 8.20997C16.5001 8.20997 16.5001 8.20997 16.5101 8.20997ZM16.2601 9.70997C16.2601 9.70997 16.2701 9.72997 16.2801 9.73997C16.2801 9.73997 16.2701 9.73997 16.2601 9.73997C16.2601 9.73997 16.2601 9.72998 16.2601 9.71998V9.70997ZM15.5101 4.92997C15.5101 4.92997 15.5101 4.92999 15.5101 4.94999C15.5101 4.94999 15.5101 4.94999 15.5001 4.94999C15.5001 4.94999 15.5001 4.93997 15.5001 4.92997H15.5101ZM5.88006 4.85997C5.88006 4.85997 5.88006 4.85999 5.88006 4.84999C5.88006 4.84999 5.88006 4.84997 5.88006 4.85997ZM5.89007 3.80998C5.89007 3.80998 5.89007 3.80997 5.89007 3.79997C5.89007 3.79997 5.89007 3.79998 5.89007 3.80998ZM6.47002 7.25999C6.47002 7.25999 6.47002 7.25997 6.47002 7.26997C6.47002 7.25997 6.48004 7.23999 6.49004 7.22999C6.49004 7.23999 6.49003 7.24997 6.48003 7.26997L6.47002 7.25999ZM6.24004 11.77C6.24004 11.77 6.26006 11.75 6.26006 11.74C6.26006 11.74 6.26007 11.76 6.27007 11.77C6.26007 11.77 6.25004 11.77 6.24004 11.77ZM7.75005 7.14C7.75005 7.14 7.75005 7.13998 7.75005 7.14998C7.75005 7.14998 7.74003 7.14998 7.73003 7.14998L7.75005 7.14ZM8.02007 10.6C8.02007 10.6 8.00004 10.6 7.99004 10.59C8.00004 10.58 8.01008 10.57 8.03008 10.57C8.03008 10.58 8.03007 10.6 8.02007 10.61V10.6ZM8.08007 10.52C8.08007 10.52 8.08007 10.5 8.08007 10.49C8.08007 10.49 8.08007 10.51 8.08007 10.52C8.08007 10.52 8.08006 10.52 8.07006 10.52H8.08007ZM8.26006 6.77998C8.26006 6.77998 8.26006 6.77997 8.26006 6.76997C8.26006 6.76997 8.27008 6.77999 8.28008 6.78999H8.26006V6.77998ZM8.62005 9.58998C8.63005 9.58998 8.64002 9.58997 8.66002 9.60997C8.65002 9.60997 8.64005 9.59998 8.62005 9.58998ZM9.24004 5.11998C9.24004 5.11998 9.24003 5.10999 9.23003 5.09999C9.23003 5.09999 9.24005 5.09997 9.25005 5.10997C9.25005 5.10997 9.25004 5.10997 9.24004 5.10997V5.11998ZM9.48003 11.78C9.48003 11.78 9.48004 11.78 9.49004 11.79C9.49004 11.79 9.48002 11.79 9.47002 11.79L9.48003 11.78ZM9.62005 25.07C9.62005 25.07 9.62004 25.07 9.61004 25.07C9.61004 25.07 9.61005 25.07 9.62005 25.06C9.62005 25.06 9.62005 25.06 9.62005 25.07ZM12.3401 25.1C12.3401 25.1 12.3401 25.11 12.3401 25.12C12.3401 25.12 12.3301 25.12 12.3201 25.12C12.3201 25.12 12.3301 25.11 12.3401 25.1ZM11.61 3.78999C11.61 3.78999 11.61 3.78999 11.6 3.78999C11.6 3.78999 11.6 3.78999 11.61 3.78999ZM11.5101 28.48C11.5101 28.48 11.5101 28.48 11.5101 28.49C11.5101 28.49 11.5101 28.49 11.5001 28.48C11.5001 28.48 11.5001 28.48 11.5101 28.48ZM11.3 1.07997C11.3 1.07997 11.2901 1.07997 11.2801 1.07997C11.2801 1.07997 11.29 1.07997 11.3 1.07997ZM10.36 13.17C10.36 13.17 10.36 13.17 10.37 13.16C10.37 13.16 10.37 13.16 10.36 13.16V13.17ZM14.1401 29.28C14.1401 29.28 14.1401 29.28 14.1401 29.27C14.1401 29.27 14.1401 29.27 14.1501 29.27C14.1501 29.27 14.1501 29.27 14.1401 29.27V29.28ZM14.4001 24.37C14.4001 24.37 14.4001 24.36 14.4001 24.35C14.4001 24.35 14.4001 24.36 14.4001 24.37C14.4001 24.37 14.4001 24.37 14.3901 24.37H14.4001ZM14.5901 24C14.5901 24 14.5901 23.98 14.5901 23.97C14.5901 23.97 14.59 23.97 14.6 23.97C14.6 23.98 14.6 23.99 14.6 24H14.5901ZM14.8201 19.56C14.8201 19.56 14.8301 19.56 14.8401 19.56C14.8701 19.57 14.89 19.59 14.91 19.62C14.88 19.6 14.8501 19.57 14.8301 19.55L14.8201 19.56ZM14.91 27.92C14.91 27.92 14.91 27.9 14.91 27.89C14.91 27.89 14.91 27.9 14.91 27.91C14.91 27.91 14.91 27.91 14.91 27.92ZM14.9501 26.28C14.9501 26.28 14.94 26.3 14.93 26.31C14.93 26.31 14.93 26.29 14.93 26.28C14.93 26.28 14.9301 26.28 14.9401 26.28H14.9501ZM15.3 29.58C15.3 29.58 15.3 29.58 15.31 29.58H15.3ZM15.85 23.31C15.85 23.31 15.8301 23.31 15.8201 23.31C15.8401 23.31 15.86 23.31 15.87 23.31C15.87 23.31 15.86 23.31 15.85 23.31ZM16.0901 17.36C16.0901 17.36 16.0901 17.35 16.0901 17.34C16.0901 17.33 16.07 17.32 16.06 17.3C16.01 17.24 16.02 17.2 16.1 17.16C16.12 17.16 16.1301 17.14 16.1501 17.14C16.1301 17.2 16.11 17.28 16.1 17.35L16.0901 17.36ZM16.66 23.95C16.66 23.95 16.67 23.95 16.68 23.95C16.68 23.95 16.67 23.95 16.66 23.95ZM17.6901 36.04C17.6901 36.04 17.6901 36.04 17.6901 36.03C17.6901 36.03 17.6901 36.03 17.7001 36.04C17.7001 36.04 17.7001 36.04 17.6901 36.04ZM18.1 26.9C18.1 26.9 18.11 26.9 18.12 26.9C18.12 26.9 18.11 26.9 18.1 26.9ZM18.6501 20.09L18.67 20.08C18.67 20.08 18.6501 20.08 18.6501 20.09ZM19.42 36.31C19.42 36.32 19.43 36.34 19.43 36.35C19.43 36.34 19.42 36.33 19.41 36.31H19.42ZM19.6301 39.03C19.6301 39.03 19.6301 39.02 19.6301 39.01V39.03ZM20.8201 41.29C20.8201 41.29 20.8201 41.29 20.8301 41.29C20.8301 41.29 20.8301 41.29 20.8301 41.3C20.8301 41.3 20.8301 41.29 20.8201 41.28V41.29ZM20.9501 42.62L20.9601 42.63C20.9601 42.63 20.9601 42.63 20.9501 42.62ZM20.9501 26.24C20.9501 26.24 20.9501 26.24 20.9501 26.23V26.24ZM20.99 31.4C20.99 31.4 20.99 31.42 20.99 31.43C20.99 31.43 20.99 31.42 20.98 31.41L20.99 31.4ZM21.0901 39.7C21.0901 39.7 21.0901 39.69 21.0901 39.68C21.0901 39.68 21.1 39.68 21.11 39.69C21.11 39.69 21.1001 39.69 21.0901 39.69V39.7ZM21.7001 32.71C21.7001 32.71 21.7001 32.7 21.7001 32.69V32.7V32.71ZM22.2101 40.99C22.2101 40.99 22.2101 40.99 22.2101 41V40.99ZM22.3901 32.22C22.3901 32.22 22.3901 32.21 22.3901 32.2C22.3901 32.2 22.3901 32.2 22.3901 32.21V32.22ZM23.2501 37.75C23.2501 37.75 23.25 37.75 23.24 37.75H23.2501ZM24.4401 41.59V41.57C24.4401 41.57 24.4501 41.58 24.4601 41.59C24.4601 41.59 24.4501 41.59 24.4401 41.59ZM24.67 39.12C24.65 39.12 24.67 39.12 24.67 39.11C24.67 39.11 24.67 39.11 24.67 39.12Z" fill="white"/>
</svg>
