<svg viewBox="0 0 100 72" fill="none" xmlns="http://www.w3.org/2000/svg">
<g opacity="0.4">
<mask id="mask0_92_47946" style="mask-type:luminance" maskUnits="userSpaceOnUse" x="23" y="10" width="62" height="62">
<path d="M84.36 10.24H23.47V71.13H84.36V10.24Z" fill="white"/>
</mask>
<g mask="url(#mask0_92_47946)">
<path d="M84.35 40.69C84.35 57.5 70.72 71.13 53.91 71.13C37.1 71.13 23.47 57.5 23.47 40.69C23.47 23.88 37.1 10.25 53.91 10.25C70.72 10.25 84.35 23.88 84.35 40.69Z" fill="white"/>
</g>
</g>
<path d="M33.7399 4.37994C30.7899 4.37994 28.15 3.22994 26.68 1.33994C25.2 3.22994 22.5499 4.37994 19.6099 4.37994C16.6699 4.37994 14.02 3.22994 12.55 1.33994C10.81 3.56994 7.81993 4.37994 5.47993 4.37994C3.89993 4.37994 2.37 4.04995 1.06 3.41995C0.850004 3.31995 0.75993 3.06995 0.85993 2.84995C0.95993 2.63995 1.21 2.54993 1.43 2.64993C2.63 3.22993 4.02993 3.52994 5.47993 3.52994C7.65993 3.52994 10.7199 2.69994 12.1899 0.379944C12.2699 0.259944 12.4 0.179932 12.55 0.179932C12.7 0.179932 12.83 0.259944 12.91 0.379944C14.11 2.28994 16.7399 3.52994 19.6099 3.52994C22.4799 3.52994 25.1099 2.28994 26.3199 0.379944C26.3999 0.259944 26.53 0.179932 26.68 0.179932C26.83 0.179932 26.96 0.259944 27.04 0.379944C28.24 2.28994 30.8699 3.52994 33.7399 3.52994C35.1899 3.52994 36.59 3.22993 37.79 2.64993C38 2.54993 38.2499 2.63995 38.3599 2.84995C38.4599 3.05995 38.37 3.30995 38.16 3.41995C36.85 4.04995 35.3199 4.37994 33.7399 4.37994Z" fill="white"/>
<path d="M33.7399 15.7599C30.8399 15.7599 28.15 14.5799 26.68 12.7199C25.2 14.5899 22.4999 15.7599 19.6099 15.7599C16.7199 15.7599 14.02 14.5799 12.55 12.7199C10.79 14.9499 7.69993 15.7599 5.47993 15.7599C3.91993 15.7599 2.39 15.4199 1.06 14.7799C0.850004 14.6799 0.75993 14.4299 0.85993 14.2099C0.95993 13.9999 1.21 13.9099 1.43 14.0099C2.64 14.5899 4.04993 14.8999 5.47993 14.8999C7.64993 14.8999 10.7199 14.0699 12.1999 11.7499C12.2799 11.6299 12.41 11.5499 12.56 11.5499C12.71 11.5499 12.84 11.6199 12.92 11.7499C14.13 13.6699 16.7599 14.8999 19.6199 14.8999C22.4799 14.8999 25.1199 13.6599 26.3399 11.7499C26.4199 11.6299 26.5499 11.5499 26.6999 11.5499C26.8499 11.5499 26.98 11.6199 27.06 11.7499C28.27 13.6699 30.9 14.8999 33.76 14.8999C35.2 14.8999 36.6 14.5899 37.81 14.0099C38.02 13.9099 38.27 13.9999 38.38 14.2099C38.4799 14.4199 38.39 14.6699 38.18 14.7799C36.85 15.4199 35.32 15.7599 33.76 15.7599H33.7399Z" fill="white"/>
<path d="M33.7399 27.1399C30.8399 27.1399 28.15 25.9599 26.68 24.0899C25.19 25.9899 22.5499 27.1399 19.6099 27.1399C16.6699 27.1399 14.02 25.9599 12.55 24.0899C10.8 26.3299 7.70993 27.1399 5.47993 27.1399C3.91993 27.1399 2.39 26.7999 1.06 26.1599C0.850004 26.0599 0.75993 25.8099 0.85993 25.5899C0.95993 25.3799 1.21 25.2899 1.43 25.3899C2.64 25.9699 4.04993 26.2799 5.47993 26.2799C7.64993 26.2799 10.7199 25.4499 12.1899 23.1099C12.2699 22.9899 12.4 22.9099 12.55 22.9099C12.7 22.9099 12.83 22.9899 12.91 23.1099C14.11 25.0299 16.7399 26.2699 19.6099 26.2699C22.4799 26.2699 25.1099 25.0299 26.3199 23.0999C26.3999 22.9799 26.53 22.8999 26.68 22.8999C26.83 22.8999 26.96 22.9799 27.04 23.0999C28.24 25.0199 30.8799 26.2599 33.7399 26.2599C35.1799 26.2599 36.58 25.9499 37.79 25.3699C38 25.2699 38.2499 25.3599 38.3599 25.5699C38.4599 25.7799 38.37 26.0299 38.16 26.1399C36.83 26.7799 35.2999 27.1199 33.7399 27.1199V27.1399Z" fill="white"/>
<path fill-rule="evenodd" clip-rule="evenodd" d="M8.62001 10.5699C8.23001 10.6999 7.80006 10.4899 7.67006 10.1099C7.53006 9.71988 7.74002 9.2999 8.13002 9.1599C8.52002 9.0299 8.94997 9.23989 9.07997 9.61989C9.20997 10.0099 9.01001 10.4299 8.62001 10.5699Z" fill="white"/>
<path fill-rule="evenodd" clip-rule="evenodd" d="M9.85999 6.4899C9.85999 6.2299 10.0699 6.0199 10.3199 6.0199C10.5699 6.0199 10.78 6.21992 10.79 6.47992C10.79 6.73992 10.58 6.94992 10.33 6.94992C10.08 6.94992 9.86999 6.7499 9.85999 6.4899Z" fill="white"/>
<path fill-rule="evenodd" clip-rule="evenodd" d="M4.66 9.65991C4.57 9.89991 4.29002 10.0199 4.06002 9.91992C3.82002 9.82992 3.70001 9.5499 3.80001 9.3099C3.89001 9.0699 4.16999 8.94989 4.39999 9.04989C4.63999 9.13989 4.76 9.41991 4.66 9.65991Z" fill="white"/>
<path fill-rule="evenodd" clip-rule="evenodd" d="M15.1801 7.24991C15.1601 6.86991 15.4499 6.54991 15.8199 6.52991C16.1899 6.50991 16.52 6.79992 16.54 7.16992C16.56 7.54992 16.27 7.86992 15.9 7.88992C15.52 7.90992 15.2001 7.61991 15.1801 7.24991Z" fill="white"/>
<path fill-rule="evenodd" clip-rule="evenodd" d="M17.42 11.0299C17.3 11.2899 16.99 11.3999 16.74 11.2799C16.49 11.1599 16.38 10.8499 16.5 10.5999C16.62 10.3499 16.93 10.2299 17.18 10.3499C17.43 10.4699 17.54 10.7699 17.42 11.0299Z" fill="white"/>
<path fill-rule="evenodd" clip-rule="evenodd" d="M21.11 8.99987C21.38 9.15987 21.48 9.49986 21.32 9.76986C21.17 10.0399 20.8201 10.1299 20.5501 9.97989C20.2801 9.81989 20.18 9.47987 20.34 9.20987C20.49 8.93987 20.84 8.84987 21.11 8.99987Z" fill="white"/>
<path fill-rule="evenodd" clip-rule="evenodd" d="M29.0201 8.33987C28.7101 8.51987 28.3 8.41986 28.12 8.10986C27.94 7.79986 28.04 7.38987 28.35 7.20987C28.66 7.02987 29.07 7.12988 29.25 7.43988C29.43 7.74988 29.3301 8.15987 29.0201 8.33987Z" fill="white"/>
<path fill-rule="evenodd" clip-rule="evenodd" d="M24.39 7.40989C24.14 7.73989 23.67 7.79987 23.34 7.54987C23.01 7.29987 22.95 6.82988 23.2 6.49988C23.45 6.16988 23.92 6.10987 24.25 6.35987C24.58 6.60987 24.64 7.07989 24.39 7.40989Z" fill="white"/>
<path fill-rule="evenodd" clip-rule="evenodd" d="M30.46 11.5299C30.21 11.6399 29.9101 11.5299 29.7901 11.2699C29.6801 11.0199 29.7901 10.7199 30.0501 10.6099C30.3001 10.4999 30.6 10.6099 30.72 10.8699C30.83 11.1199 30.72 11.4199 30.46 11.5299Z" fill="white"/>
<path fill-rule="evenodd" clip-rule="evenodd" d="M35.23 7.05987C35.56 6.95987 35.9001 7.13986 36.0101 7.45986C36.1101 7.77986 35.93 8.12988 35.61 8.22988C35.29 8.32988 34.94 8.14986 34.83 7.82986C34.73 7.50986 34.91 7.15987 35.23 7.05987Z" fill="white"/>
<path fill-rule="evenodd" clip-rule="evenodd" d="M34.81 11.5799C34.76 11.8499 34.4999 12.0399 34.2199 11.9899C33.9499 11.9399 33.76 11.6799 33.81 11.3999C33.86 11.1199 34.12 10.9399 34.4 10.9899C34.67 11.0399 34.86 11.3099 34.81 11.5799Z" fill="white"/>
<path fill-rule="evenodd" clip-rule="evenodd" d="M33.98 21.24C34.2 20.93 34.1201 20.49 33.8101 20.27C33.5001 20.05 33.07 20.13 32.85 20.44C32.63 20.75 32.7101 21.19 33.0201 21.41C33.3301 21.63 33.76 21.55 33.98 21.24Z" fill="white"/>
<path fill-rule="evenodd" clip-rule="evenodd" d="M29.4001 17.8999C29.6001 17.6399 29.5601 17.2599 29.3001 17.0599C29.0401 16.8499 28.66 16.8999 28.46 17.1599C28.25 17.4199 28.3001 17.7999 28.5601 17.9999C28.8201 18.1999 29.2001 18.1599 29.4001 17.8999Z" fill="white"/>
<path fill-rule="evenodd" clip-rule="evenodd" d="M27.8 21.1199C27.9 21.3999 28.21 21.5399 28.49 21.4399C28.77 21.3399 28.9101 21.0299 28.8101 20.7499C28.7101 20.4699 28.4 20.3199 28.12 20.4299C27.84 20.5299 27.7 20.8399 27.8 21.1199Z" fill="white"/>
<path fill-rule="evenodd" clip-rule="evenodd" d="M23.72 19.0799C23.95 19.2999 24.31 19.2899 24.53 19.0599C24.75 18.8299 24.74 18.4699 24.51 18.2599C24.28 18.0399 23.9199 18.0499 23.6999 18.2799C23.4799 18.5099 23.49 18.8699 23.72 19.0799Z" fill="white"/>
<path fill-rule="evenodd" clip-rule="evenodd" d="M21.6701 21.6199C21.3101 21.5699 20.9701 21.8299 20.9301 22.1899C20.8801 22.5499 21.1401 22.8799 21.5001 22.9299C21.8601 22.9799 22.2001 22.7199 22.2401 22.3599C22.2901 21.9999 22.0301 21.6599 21.6701 21.6199Z" fill="white"/>
<path fill-rule="evenodd" clip-rule="evenodd" d="M17.16 22.2799C16.88 22.1999 16.58 22.3699 16.5 22.6499C16.42 22.9299 16.58 23.2199 16.86 23.2999C17.14 23.3799 17.44 23.2099 17.52 22.9299C17.6 22.6499 17.44 22.3599 17.15 22.2799H17.16Z" fill="white"/>
<path fill-rule="evenodd" clip-rule="evenodd" d="M13.47 20.7099C13.81 20.6299 14.02 20.2999 13.94 19.9599C13.86 19.6199 13.53 19.4099 13.19 19.4899C12.85 19.5699 12.64 19.8999 12.72 20.2399C12.8 20.5799 13.13 20.7899 13.47 20.7099Z" fill="white"/>
<path fill-rule="evenodd" clip-rule="evenodd" d="M18.34 18.5899C18.44 18.2199 18.22 17.8499 17.86 17.7499C17.5 17.6499 17.12 17.8699 17.02 18.2299C16.92 18.5899 17.14 18.9699 17.5 19.0699C17.86 19.1699 18.24 18.9499 18.34 18.5899Z" fill="white"/>
<path fill-rule="evenodd" clip-rule="evenodd" d="M9.73995 17.2498C9.39995 17.4398 9.26991 17.8698 9.44991 18.2098C9.62991 18.5498 10.06 18.6798 10.4 18.4898C10.74 18.2998 10.8699 17.8698 10.6899 17.5298C10.5099 17.1898 10.08 17.0598 9.73995 17.2498Z" fill="white"/>
<path fill-rule="evenodd" clip-rule="evenodd" d="M8.46 21.32C8.07 21.27 7.71008 21.55 7.66008 21.94C7.61008 22.33 7.89007 22.69 8.28007 22.74C8.67007 22.79 9.03 22.51 9.08 22.12C9.13 21.73 8.85 21.37 8.46 21.32Z" fill="white"/>
<path fill-rule="evenodd" clip-rule="evenodd" d="M4.93007 19.3899C5.01007 18.9999 4.76001 18.6199 4.37001 18.5299C3.98001 18.4499 3.60002 18.6999 3.51002 19.0899C3.43002 19.4799 3.67996 19.8599 4.06996 19.9499C4.45996 20.0299 4.84007 19.7799 4.93007 19.3899Z" fill="white"/>
</svg>
