<svg viewBox="0 0 152 64" fill="none" xmlns="http://www.w3.org/2000/svg">
  <mask
    id="mask0_88_38468"
    style="mask-type: luminance"
    maskUnits="userSpaceOnUse"
    x="0"
    y="0"
  >
    <path d="M152 0H0V64H152V0Z" fill="white" />
  </mask>
  <g mask="url(#mask0_88_38468)">
    <g opacity="0.5">
      <path
        d="M13.36 51.53C12.75 51.53 12.26 51.04 12.26 50.43V32.43C12.26 31.82 12.75 31.33 13.36 31.33C13.97 31.33 14.46 31.82 14.46 32.43V50.43C14.46 51.04 13.97 51.53 13.36 51.53Z"
        fill="white"
      />
    </g>
    <g opacity="0.5">
      <path
        d="M18.64 51.53C18.03 51.53 17.54 51.04 17.54 50.43V17.99C17.54 17.38 18.03 16.89 18.64 16.89C19.25 16.89 19.74 17.38 19.74 17.99V50.43C19.74 51.04 19.25 51.53 18.64 51.53Z"
        fill="white"
      />
    </g>
    <g opacity="0.5">
      <path
        d="M23.91 51.53C23.3 51.53 22.8101 51.1171 22.8101 50.6031V16.6852C22.8101 16.1712 23.3 15.7583 23.91 15.7583C24.52 15.7583 25.01 16.1712 25.01 16.6852V50.6031C25.01 51.1171 24.52 51.53 23.91 51.53Z"
        fill="white"
      />
    </g>
    <g opacity="0.5">
      <path
        d="M29.1899 51.5846C28.5799 51.5846 28.09 51.2197 28.09 50.7655V17.4628C28.09 17.0085 28.5799 16.6436 29.1899 16.6436C29.7999 16.6436 30.29 17.0085 30.29 17.4628V50.7655C30.29 51.2197 29.7999 51.5846 29.1899 51.5846Z"
        fill="white"
      />
    </g>
    <g opacity="0.5">
      <path
        d="M34.46 51.5847C33.85 51.5847 33.36 51.2198 33.36 50.7655V15.7426C33.36 15.2883 33.85 14.9234 34.46 14.9234C35.07 14.9234 35.5601 15.2883 35.5601 15.7426V50.7655C35.5601 51.2198 35.07 51.5847 34.46 51.5847Z"
        fill="white"
      />
    </g>
    <g opacity="0.5">
      <path
        d="M39.74 51.5847C39.13 51.5847 38.64 51.2197 38.64 50.7655V14.8192C38.64 14.3649 39.13 14 39.74 14C40.35 14 40.84 14.3649 40.84 14.8192V50.7655C40.84 51.2197 40.35 51.5847 39.74 51.5847Z"
        fill="white"
      />
    </g>
    <g opacity="0.5">
      <path
        d="M45 52C44.4454 52 44 51.6311 44 51.1718V14.8282C44 14.3689 44.4454 14 45 14C45.5546 14 46 14.3689 46 14.8282V51.1718C46 51.6311 45.5546 52 45 52Z"
        fill="white"
      />
    </g>
    <g opacity="0.5">
      <path
        d="M50.29 51.5847C49.68 51.5847 49.1899 51.2198 49.1899 50.7655V15.4447C49.1899 14.9904 49.68 14.6255 50.29 14.6255C50.9 14.6255 51.39 14.9904 51.39 15.4447V50.7655C51.39 51.2198 50.9 51.5847 50.29 51.5847Z"
        fill="white"
      />
    </g>
    <g opacity="0.5">
      <path
        d="M55.5699 51.5846C54.9599 51.5846 54.47 51.2197 54.47 50.7655V17.4628C54.47 17.0085 54.9599 16.6436 55.5699 16.6436C56.1799 16.6436 56.67 17.0085 56.67 17.4628V50.7655C56.67 51.2197 56.1799 51.5846 55.5699 51.5846Z"
        fill="white"
      />
    </g>
    <g opacity="0.5">
      <path
        d="M60.85 51.53C60.24 51.53 59.75 51.1171 59.75 50.6031V16.2555C59.75 15.7414 60.24 15.3285 60.85 15.3285C61.46 15.3285 61.95 15.7414 61.95 16.2555V50.6031C61.95 51.1171 61.46 51.53 60.85 51.53Z"
        fill="white"
      />
    </g>
    <g opacity="0.5">
      <path
        d="M66.12 51.53C65.51 51.53 65.02 51.04 65.02 50.43V16.47C65.02 15.86 65.51 15.37 66.12 15.37C66.73 15.37 67.22 15.86 67.22 16.47V50.43C67.22 51.04 66.73 51.53 66.12 51.53Z"
        fill="white"
      />
    </g>
    <g opacity="0.5">
      <path
        d="M71.4 51.53C70.79 51.53 70.3 51.04 70.3 50.43V25.54C70.3 24.93 70.79 24.44 71.4 24.44C72.01 24.44 72.5 24.93 72.5 25.54V50.43C72.5 51.04 72.01 51.53 71.4 51.53Z"
        fill="white"
      />
    </g>
    <g opacity="0.5">
      <path
        d="M76.67 51.53C76.06 51.53 75.5699 51.04 75.5699 50.43V34.21C75.5699 33.6 76.06 33.11 76.67 33.11C77.28 33.11 77.77 33.6 77.77 34.21V50.43C77.77 51.04 77.28 51.53 76.67 51.53Z"
        fill="white"
      />
    </g>
    <g opacity="0.5">
      <path
        d="M81.95 51.53C81.34 51.53 80.85 51.04 80.85 50.43V39.72C80.85 39.11 81.34 38.62 81.95 38.62C82.56 38.62 83.05 39.11 83.05 39.72V50.43C83.05 51.04 82.56 51.53 81.95 51.53Z"
        fill="white"
      />
    </g>
    <g opacity="0.5">
      <path
        d="M87.23 51.53C86.62 51.53 86.13 51.04 86.13 50.43V43.91C86.13 43.3 86.62 42.81 87.23 42.81C87.84 42.81 88.33 43.3 88.33 43.91V50.43C88.33 51.04 87.84 51.53 87.23 51.53Z"
        fill="white"
      />
    </g>
    <g opacity="0.5">
      <path
        d="M92.5 51.53C91.89 51.53 91.4 51.04 91.4 50.43V45.75C91.4 45.14 91.89 44.65 92.5 44.65C93.11 44.65 93.6 45.14 93.6 45.75V50.43C93.6 51.04 93.11 51.53 92.5 51.53Z"
        fill="white"
      />
    </g>
    <g opacity="0.5">
      <path
        d="M97.78 51.53C97.17 51.53 96.6801 51.04 96.6801 50.43V46.63C96.6801 46.02 97.17 45.53 97.78 45.53C98.39 45.53 98.88 46.02 98.88 46.63V50.43C98.88 51.04 98.39 51.53 97.78 51.53Z"
        fill="white"
      />
    </g>
    <g opacity="0.5">
      <path
        d="M103.06 51.53C102.45 51.53 101.96 51.04 101.96 50.43V47.52C101.96 46.91 102.45 46.42 103.06 46.42C103.67 46.42 104.16 46.91 104.16 47.52V50.43C104.16 51.04 103.67 51.53 103.06 51.53Z"
        fill="white"
      />
    </g>
    <path
      d="M108.33 51.53C107.72 51.53 107.23 51.04 107.23 50.43V46.63C107.23 46.02 107.72 45.53 108.33 45.53C108.94 45.53 109.43 46.02 109.43 46.63V50.43C109.43 51.04 108.94 51.53 108.33 51.53Z"
      fill="white"
    />
    <g opacity="0.5">
      <path
        d="M113.61 51.53C113 51.53 112.51 51.04 112.51 50.43V44.59C112.51 43.98 113 43.49 113.61 43.49C114.22 43.49 114.71 43.98 114.71 44.59V50.43C114.71 51.04 114.22 51.53 113.61 51.53Z"
        fill="white"
      />
    </g>
    <g opacity="0.5">
      <path
        d="M118.88 51.53C118.27 51.53 117.78 51.04 117.78 50.43V40.4C117.78 39.79 118.27 39.3 118.88 39.3C119.49 39.3 119.98 39.79 119.98 40.4V50.43C119.98 51.04 119.49 51.53 118.88 51.53Z"
        fill="white"
      />
    </g>
    <g opacity="0.5">
      <path
        d="M124.16 51.53C123.55 51.53 123.06 51.04 123.06 50.43V33.45C123.06 32.84 123.55 32.35 124.16 32.35C124.77 32.35 125.26 32.84 125.26 33.45V50.43C125.26 51.04 124.77 51.53 124.16 51.53Z"
        fill="white"
      />
    </g>
    <g opacity="0.5">
      <path
        d="M129.44 51.53C128.83 51.53 128.34 51.04 128.34 50.43V24.91C128.34 24.3 128.83 23.81 129.44 23.81C130.05 23.81 130.54 24.3 130.54 24.91V50.43C130.54 51.04 130.05 51.53 129.44 51.53Z"
        fill="white"
      />
    </g>
    <g opacity="0.5">
      <path
        d="M134.71 51.5846C134.1 51.5846 133.61 51.1516 133.61 50.6125V16.4037C133.61 15.8646 134.1 15.4316 134.71 15.4316C135.32 15.4316 135.81 15.8646 135.81 16.4037V50.6125C135.81 51.1516 135.32 51.5846 134.71 51.5846Z"
        fill="white"
      />
    </g>
    <g opacity="0.5">
      <path
        d="M139.92 51.53C139.31 51.53 138.82 51.04 138.82 50.43V40.4C138.82 39.79 139.31 39.3 139.92 39.3C140.53 39.3 141.02 39.79 141.02 40.4V50.43C141.02 51.04 140.53 51.53 139.92 51.53Z"
        fill="white"
      />
    </g>
    <path
      d="M13.0682 56.6278C13.3665 56.6302 13.6648 56.687 13.9631 56.7983C14.2614 56.9096 14.5336 57.0942 14.7798 57.3523C15.026 57.608 15.2237 57.9571 15.3729 58.3999C15.522 58.8426 15.5966 59.3977 15.5966 60.0653C15.5966 60.7116 15.535 61.2857 15.4119 61.7876C15.2912 62.2872 15.116 62.7086 14.8864 63.0518C14.6591 63.3951 14.3821 63.6555 14.0554 63.8331C13.7311 64.0107 13.3641 64.0994 12.9545 64.0994C12.5473 64.0994 12.1839 64.0189 11.8643 63.858C11.5471 63.6946 11.2867 63.4685 11.0831 63.1797C10.8819 62.8885 10.7528 62.5511 10.696 62.1676H11.5625C11.6406 62.5014 11.7957 62.7772 12.0277 62.995C12.2621 63.2105 12.571 63.3182 12.9545 63.3182C13.5156 63.3182 13.9583 63.0732 14.2827 62.5831C14.6094 62.093 14.7727 61.4006 14.7727 60.5057H14.7159C14.5833 60.7045 14.4259 60.8762 14.2436 61.0206C14.0613 61.165 13.8589 61.2763 13.6364 61.3544C13.4138 61.4325 13.1771 61.4716 12.9261 61.4716C12.5095 61.4716 12.1271 61.3686 11.7791 61.1626C11.4335 60.9543 11.1565 60.669 10.9482 60.3068C10.7422 59.9422 10.6392 59.5256 10.6392 59.0568C10.6392 58.6117 10.7386 58.2045 10.9375 57.8352C11.1387 57.4635 11.4205 57.1676 11.7827 56.9474C12.1473 56.7273 12.5758 56.6207 13.0682 56.6278ZM13.0682 57.4091C12.7699 57.4091 12.5012 57.4837 12.2621 57.6328C12.0253 57.7796 11.8371 57.9785 11.6974 58.2294C11.5601 58.478 11.4915 58.7538 11.4915 59.0568C11.4915 59.3598 11.5578 59.6357 11.6903 59.8842C11.8253 60.1304 12.0088 60.3269 12.2408 60.4737C12.4751 60.6181 12.7415 60.6903 13.0398 60.6903C13.2647 60.6903 13.4742 60.6465 13.6683 60.5589C13.8625 60.469 14.0317 60.3471 14.1761 60.1932C14.3229 60.0369 14.4377 59.8606 14.5206 59.6641C14.6035 59.4652 14.6449 59.258 14.6449 59.0426C14.6449 58.7585 14.5762 58.4922 14.4389 58.2436C14.304 57.995 14.117 57.7938 13.8778 57.6399C13.6411 57.486 13.3712 57.4091 13.0682 57.4091Z"
      fill="white"
    />
    <path
      d="M32.1297 56.7273V64H31.249V57.6506H31.2064L29.4309 58.8295V57.9347L31.249 56.7273H32.1297ZM36.5935 64.0994C36.0585 64.0994 35.6027 63.9538 35.2263 63.6626C34.8499 63.3691 34.5623 62.9441 34.3634 62.3878C34.1645 61.8291 34.0651 61.1544 34.0651 60.3636C34.0651 59.5777 34.1645 58.9065 34.3634 58.3501C34.5646 57.7914 34.8534 57.3653 35.2299 57.0717C35.6087 56.7758 36.0632 56.6278 36.5935 56.6278C37.1238 56.6278 37.5772 56.7758 37.9536 57.0717C38.3324 57.3653 38.6212 57.7914 38.8201 58.3501C39.0213 58.9065 39.1219 59.5777 39.1219 60.3636C39.1219 61.1544 39.0225 61.8291 38.8236 62.3878C38.6248 62.9441 38.3371 63.3691 37.9607 63.6626C37.5843 63.9538 37.1285 64.0994 36.5935 64.0994ZM36.5935 63.3182C37.1238 63.3182 37.5357 63.0625 37.8293 62.5511C38.1229 62.0398 38.2696 61.3106 38.2696 60.3636C38.2696 59.7339 38.2022 59.1977 38.0672 58.755C37.9347 58.3123 37.7429 57.9749 37.4919 57.7429C37.2434 57.5109 36.9439 57.3949 36.5935 57.3949C36.0679 57.3949 35.6572 57.6541 35.3613 58.1726C35.0653 58.6887 34.9174 59.419 34.9174 60.3636C34.9174 60.9934 34.9837 61.5284 35.1162 61.9688C35.2488 62.4091 35.4394 62.7441 35.688 62.9737C35.9389 63.2034 36.2408 63.3182 36.5935 63.3182Z"
      fill="white"
    />
    <path
      d="M53.1596 56.7273V64H52.279V57.6506H52.2363L50.4608 58.8295V57.9347L52.279 56.7273H53.1596ZM57.8081 56.7273V64H56.9274V57.6506H56.8848L55.1092 58.8295V57.9347L56.9274 56.7273H57.8081Z"
      fill="white"
    />
    <path
      d="M116.27 56.7273V64H115.389V57.6506H115.346L113.571 58.8295V57.9347L115.389 56.7273H116.27ZM118.191 62.5085V61.7841L121.387 56.7273H121.912V57.8494H121.557L119.143 61.6705V61.7273H123.447V62.5085H118.191ZM121.614 64V62.2884V61.951V56.7273H122.452V64H121.614Z"
      fill="white"
    />
    <path
      d="M137.31 56.7273V64H136.429V57.6506H136.386L134.611 58.8295V57.9347L136.429 56.7273H137.31ZM141.674 64.0994C141.257 64.0994 140.882 64.0166 140.548 63.8509C140.214 63.6851 139.947 63.4579 139.746 63.169C139.545 62.8802 139.434 62.5511 139.415 62.1818H140.268C140.301 62.5109 140.45 62.7831 140.715 62.9986C140.983 63.2116 141.302 63.3182 141.674 63.3182C141.972 63.3182 142.237 63.2483 142.469 63.1087C142.704 62.969 142.887 62.7772 143.02 62.5334C143.155 62.2872 143.222 62.009 143.222 61.6989C143.222 61.3816 143.152 61.0987 143.013 60.8501C142.875 60.5992 142.686 60.4015 142.445 60.2571C142.203 60.1127 141.927 60.0393 141.617 60.0369C141.395 60.0346 141.166 60.0689 140.932 60.1399C140.697 60.2086 140.504 60.2973 140.353 60.4062L139.529 60.3068L139.969 56.7273H143.748V57.5085H140.708L140.452 59.6534H140.495C140.644 59.535 140.831 59.4368 141.056 59.3587C141.281 59.2805 141.515 59.2415 141.759 59.2415C142.204 59.2415 142.601 59.348 142.949 59.5611C143.299 59.7718 143.574 60.0606 143.773 60.4276C143.974 60.7945 144.075 61.2135 144.075 61.6847C144.075 62.1487 143.97 62.563 143.762 62.9276C143.556 63.2898 143.272 63.5762 142.91 63.7869C142.548 63.9953 142.136 64.0994 141.674 64.0994Z"
      fill="white"
    />
    <path
      d="M74.1997 56.7273V64H73.319V57.6506H73.2764L71.5008 58.8295V57.9347L73.319 56.7273H74.1997ZM76.2913 64V63.3608L78.6919 60.733C78.9736 60.4252 79.2056 60.1577 79.3879 59.9304C79.5702 59.7008 79.7051 59.4853 79.7927 59.2841C79.8827 59.0805 79.9277 58.8674 79.9277 58.6449C79.9277 58.3892 79.8661 58.1679 79.743 57.9808C79.6223 57.7938 79.4565 57.6494 79.2458 57.5476C79.0351 57.4458 78.7984 57.3949 78.5356 57.3949C78.2563 57.3949 78.0124 57.4529 77.8041 57.5689C77.5981 57.6825 77.4383 57.8423 77.3247 58.0483C77.2134 58.2543 77.1578 58.4957 77.1578 58.7727H76.3197C76.3197 58.3466 76.418 57.9725 76.6144 57.6506C76.8109 57.3286 77.0785 57.0777 77.417 56.8977C77.7579 56.7178 78.1403 56.6278 78.564 56.6278C78.9902 56.6278 79.3678 56.7178 79.6968 56.8977C80.0259 57.0777 80.284 57.3203 80.471 57.6257C80.658 57.9311 80.7515 58.2708 80.7515 58.6449C80.7515 58.9124 80.703 59.174 80.6059 59.4297C80.5112 59.683 80.3455 59.9659 80.1088 60.2784C79.8744 60.5885 79.5489 60.9673 79.1322 61.4148L77.4987 63.1619V63.2188H80.8794V64H76.2913Z"
      fill="white"
    />
    <path
      d="M95.2297 56.7273V64H94.349V57.6506H94.3064L92.5308 58.8295V57.9347L94.349 56.7273H95.2297ZM99.7787 64.0994C99.31 64.0994 98.8921 64.0189 98.5252 63.858C98.1606 63.697 97.8706 63.4732 97.6551 63.1868C97.4421 62.898 97.3261 62.563 97.3071 62.1818H98.202C98.2209 62.4162 98.3014 62.6186 98.4435 62.7891C98.5855 62.9571 98.7714 63.0874 99.001 63.1797C99.2307 63.272 99.4851 63.3182 99.7645 63.3182C100.077 63.3182 100.354 63.2637 100.595 63.1548C100.837 63.0459 101.026 62.8944 101.164 62.7003C101.301 62.5062 101.37 62.2812 101.37 62.0256C101.37 61.758 101.303 61.5225 101.171 61.3189C101.038 61.1129 100.844 60.9519 100.588 60.8359C100.333 60.7199 100.02 60.6619 99.6509 60.6619H99.0685V59.8807H99.6509C99.9397 59.8807 100.193 59.8286 100.411 59.7244C100.631 59.6203 100.803 59.4735 100.926 59.2841C101.051 59.0947 101.114 58.8722 101.114 58.6165C101.114 58.3703 101.059 58.156 100.951 57.9737C100.842 57.7914 100.688 57.6494 100.489 57.5476C100.292 57.4458 100.06 57.3949 99.7929 57.3949C99.542 57.3949 99.3052 57.4411 99.0827 57.5334C98.8625 57.6233 98.6826 57.7547 98.5429 57.9276C98.4032 58.098 98.3275 58.304 98.3156 58.5455H97.4634C97.4776 58.1643 97.5924 57.8305 97.8078 57.544C98.0233 57.2552 98.305 57.0303 98.653 56.8693C99.0034 56.7083 99.3881 56.6278 99.8071 56.6278C100.257 56.6278 100.643 56.719 100.965 56.9013C101.287 57.0812 101.534 57.3191 101.707 57.6151C101.88 57.911 101.966 58.2306 101.966 58.5739C101.966 58.9834 101.858 59.3326 101.643 59.6214C101.43 59.9103 101.14 60.1103 100.773 60.2216V60.2784C101.232 60.3542 101.591 60.5495 101.849 60.8643C102.107 61.1768 102.236 61.5639 102.236 62.0256C102.236 62.4209 102.128 62.776 101.913 63.0909C101.7 63.4034 101.409 63.6496 101.039 63.8295C100.67 64.0095 100.25 64.0994 99.7787 64.0994Z"
      fill="white"
    />
    <path
      d="M8.13 51.53H143.89"
      stroke="white"
      stroke-linecap="round"
      stroke-linejoin="round"
    />
    <path
      d="M13.36 51.53V53.5"
      stroke="white"
      stroke-linecap="round"
      stroke-linejoin="round"
    />
    <path
      d="M34.46 51.53V53.5"
      stroke="white"
      stroke-linecap="round"
      stroke-linejoin="round"
    />
    <path
      d="M55.5699 51.53V53.5"
      stroke="white"
      stroke-linecap="round"
      stroke-linejoin="round"
    />
    <path
      d="M76.67 51.53V53.5"
      stroke="white"
      stroke-linecap="round"
      stroke-linejoin="round"
    />
    <path
      d="M97.78 51.53V53.5"
      stroke="white"
      stroke-linecap="round"
      stroke-linejoin="round"
    />
    <path
      d="M118.83 51.53V53.5"
      stroke="white"
      stroke-linecap="round"
      stroke-linejoin="round"
    />
    <path
      d="M139.89 51.53V53.5"
      stroke="white"
      stroke-linecap="round"
      stroke-linejoin="round"
    />
  </g>
</svg>
