<svg viewBox="0 0 101 112" fill="none" xmlns="http://www.w3.org/2000/svg">
  <path
    d="M34.8201 57.79C23.4701 59.41 12.1201 61.04 0.760078 62.66C0.700078 62.43 0.640078 62.2 0.580078 61.97C7.78008 59.74 14.9501 57.41 22.1801 55.31C29.7901 53.1 37.4801 51.16 45.1001 48.98C51.6201 47.11 55.3901 44.73 55.3001 37.58C55.2801 35.63 55.5901 33.68 55.5701 31.73C55.5101 26.49 53.7601 22.83 48.1801 20.75C37.0201 16.6 27.0801 10.09 17.7101 2.77002C17.1101 2.30002 16.6001 1.73 15.3001 0.5C21.7401 1.82 27.2101 2.93 32.6801 4.06C43.0301 6.2 53.3801 8.37997 63.7401 10.47C68.2001 11.37 71.1301 13.42 72.0401 18.32C72.9101 23.03 74.6101 27.58 75.9501 32.23C80.0701 30.35 83.9601 27.35 88.0401 27.05C92.1501 26.75 96.4601 29.13 100.8 30.37C96.2001 36.47 91.7901 42.22 87.5501 48.11C87.0901 48.75 87.2801 50.56 87.8601 51.13C90.1501 53.38 92.6501 55.41 95.1801 57.39C98.0401 59.63 98.8701 62.39 97.0101 65.49C87.9001 80.64 78.7001 95.74 69.5301 110.85C69.4401 111 69.1901 111.05 68.0801 111.67C69.5101 105.48 70.5101 99.89 72.1201 94.48C73.7901 88.88 75.6201 83.24 78.1701 78C80.7501 72.71 78.8801 69.72 75.7001 65.89C74.9001 64.93 73.7501 64.27 72.8901 63.35C66.1401 56.11 58.1901 57.08 50.1201 60.24C40.1701 64.13 30.3301 68.3 20.4401 72.33C19.7201 72.62 18.9601 72.81 17.8801 72.45C23.7901 68.19 29.7001 63.92 35.6101 59.66C35.3501 59.03 35.1001 58.4 34.8401 57.77L34.8201 57.79ZM44.7701 55.68C59.9001 56.4 71.7601 55.12 83.6401 47.25C88.2001 44.23 91.8401 40.05 92.3001 33.21C74.7101 37.82 60.1701 47.66 44.7701 55.68Z"
    fill="white"
  />
</svg>
