<svg viewBox="0 0 100 72" fill="none" xmlns="http://www.w3.org/2000/svg">
<g opacity="0.4">
<mask id="mask0_92_47981" style="mask-type:luminance" maskUnits="userSpaceOnUse" x="5" y="11" width="62" height="62">
<path d="M66.36 11.24H5.46997V72.13H66.36V11.24Z" fill="white"/>
</mask>
<g mask="url(#mask0_92_47981)">
<path d="M66.35 41.69C66.35 58.5 52.72 72.13 35.91 72.13C19.1 72.13 5.46997 58.5 5.46997 41.69C5.46997 24.88 19.1 11.25 35.91 11.25C52.72 11.25 66.35 24.88 66.35 41.69Z" fill="white"/>
</g>
</g>
<path d="M5.01998 26.7999V26.59C5.01998 19.21 5.01998 11.84 5.01998 4.45995C5.01998 2.72995 6.06 1.22995 7.66 0.649955C9.94 -0.180045 12.43 1.21996 12.93 3.58996C12.99 3.87996 13.01 4.16996 13.01 4.46996C13.01 11.84 13.01 19.2 13.01 26.57C13.01 26.74 13.0599 26.83 13.1999 26.92C15.2699 28.21 16.5699 30.05 16.9699 32.46C17.4199 35.15 16.67 37.51 14.78 39.48C13.64 40.67 12.25 41.41 10.64 41.74C9.81998 41.91 8.99 41.9499 8.16 41.8599C6.41 41.6699 4.87992 40.9799 3.57992 39.7999C2.25992 38.5999 1.42993 37.1199 1.08993 35.3599C0.939929 34.6199 0.899934 33.87 0.969934 33.12C1.12993 31.42 1.74995 29.9099 2.85995 28.6099C3.43995 27.9199 4.12999 27.34 4.89999 26.88C4.93999 26.86 4.96998 26.8299 5.01998 26.7999ZM11.99 15.69C11.99 11.96 11.99 8.22996 11.99 4.49996C11.99 4.33996 11.9899 4.17995 11.9599 4.01995C11.7799 2.59995 10.6 1.50995 9.17001 1.42995C7.95001 1.36995 6.81002 2.05997 6.31002 3.16997C6.12002 3.59997 6.04 4.04995 6.04 4.51995C6.04 12.0599 6.04 19.61 6.04 27.15C6.04 27.2 6.04 27.25 6.04 27.29C6.04 27.36 6.01991 27.41 5.94991 27.44C5.80991 27.51 5.68 27.59 5.54 27.67C3.52 28.87 2.32996 30.62 1.99996 32.95C1.87996 33.81 1.93999 34.66 2.14999 35.5C3.03999 39.06 6.49995 41.36 10.1099 40.78C11.4799 40.56 12.6999 40 13.7099 39.06C15.5899 37.31 16.3499 35.15 15.9499 32.6C15.6999 31.04 14.95 29.73 13.8 28.64C13.3 28.17 12.74 27.8 12.14 27.48C12.01 27.41 11.9499 27.33 11.9699 27.18C11.9699 27.11 11.9699 27.03 11.9699 26.95C11.9699 23.19 11.9699 19.43 11.9699 15.67L11.99 15.69Z" fill="white"/>
<path d="M10.3799 28.9C11.8199 29.35 12.88 30.22 13.54 31.57C14.05 32.63 14.17 33.75 13.89 34.89C13.35 37.15 11.2699 38.86 8.74994 38.73C6.35994 38.6 4.40989 36.82 4.06989 34.46C3.69989 31.89 5.29998 29.58 7.65998 28.91V3.60995C7.78998 3.56995 9.97994 3.55996 10.3699 3.58996C10.3699 3.62996 10.38 3.66995 10.39 3.70995C10.39 3.76995 10.39 3.83995 10.39 3.89995C10.39 8.57995 10.39 24 10.39 28.68V28.91L10.3799 28.9Z" fill="white"/>
</svg>
